%FSTAX23Y23*%
%MOMM*%
%SFA1B1*%

%IPPOS*%
%ADD45C,0.250000*%
%ADD46C,0.200000*%
%ADD47C,0.599999*%
%ADD48C,0.250000*%
%LNmain_board-1*%
%LPD*%
G54D45*
X50759Y11319D02*
D01*
X50759Y11326*
X50759Y11333*
X50757Y1134*
X50756Y11347*
X50753Y11354*
X50751Y1136*
X50748Y11366*
X50744Y11372*
X5074Y11378*
X50736Y11384*
X50731Y11389*
X50726Y11394*
X50721Y11398*
X50715Y11402*
X50709Y11406*
X50703Y11409*
X50697Y11412*
X5069Y11415*
X50684Y11417*
X50677Y11418*
X5067Y11419*
X50663Y11419*
X50656*
X50649Y11419*
X50642Y11418*
X50635Y11417*
X50629Y11415*
X50622Y11412*
X50616Y11409*
X50609Y11406*
X50604Y11402*
X50598Y11398*
X50593Y11394*
X50588Y11389*
X50583Y11384*
X50579Y11378*
X50575Y11372*
X50571Y11366*
X50568Y1136*
X50566Y11354*
X50563Y11347*
X50562Y1134*
X5056Y11333*
X5056Y11326*
X50559Y11319*
X5056Y11313*
X5056Y11306*
X50562Y11299*
X50563Y11292*
X50566Y11285*
X50568Y11279*
X50571Y11273*
X50575Y11266*
X50579Y11261*
X50583Y11255*
X50588Y1125*
X50593Y11245*
X50598Y11241*
X50604Y11237*
X50609Y11233*
X50616Y1123*
X50622Y11227*
X50629Y11224*
X50635Y11222*
X50642Y11221*
X50649Y1122*
X50656Y1122*
X50663*
X5067Y1122*
X50677Y11221*
X50684Y11222*
X5069Y11224*
X50697Y11227*
X50703Y1123*
X50709Y11233*
X50715Y11237*
X50721Y11241*
X50726Y11245*
X50731Y1125*
X50736Y11255*
X5074Y11261*
X50744Y11266*
X50748Y11273*
X50751Y11279*
X50753Y11285*
X50756Y11292*
X50757Y11299*
X50759Y11306*
X50759Y11313*
X50759Y11319*
X28439Y07019D02*
D01*
X28439Y07026*
X28439Y07032*
X28438Y07038*
X28436Y07044*
X28434Y0705*
X28432Y07056*
X28429Y07062*
X28426Y07067*
X28422Y07072*
X28418Y07077*
X28414Y07082*
X2841Y07086*
X28405Y0709*
X284Y07094*
X28394Y07097*
X28389Y071*
X28383Y07103*
X28377Y07105*
X28371Y07107*
X28365Y07108*
X28359Y07109*
X28353Y07109*
X28346*
X2834Y07109*
X28334Y07108*
X28328Y07107*
X28322Y07105*
X28316Y07103*
X2831Y071*
X28304Y07097*
X28299Y07094*
X28294Y0709*
X28289Y07086*
X28285Y07082*
X28281Y07077*
X28277Y07072*
X28273Y07067*
X2827Y07062*
X28267Y07056*
X28265Y0705*
X28263Y07044*
X28261Y07038*
X2826Y07032*
X2826Y07026*
X28259Y07019*
X2826Y07013*
X2826Y07007*
X28261Y07001*
X28263Y06995*
X28265Y06989*
X28267Y06983*
X2827Y06977*
X28273Y06972*
X28277Y06967*
X28281Y06962*
X28285Y06957*
X28289Y06953*
X28294Y06949*
X28299Y06945*
X28304Y06942*
X2831Y06939*
X28316Y06936*
X28322Y06934*
X28328Y06932*
X28334Y06931*
X2834Y0693*
X28346Y0693*
X28353*
X28359Y0693*
X28365Y06931*
X28371Y06932*
X28377Y06934*
X28383Y06936*
X28389Y06939*
X28394Y06942*
X284Y06945*
X28405Y06949*
X2841Y06953*
X28414Y06957*
X28418Y06962*
X28422Y06967*
X28426Y06972*
X28429Y06977*
X28432Y06983*
X28434Y06989*
X28436Y06995*
X28438Y07001*
X28439Y07007*
X28439Y07013*
X28439Y07019*
X48819Y38509D02*
X58979D01*
X48819Y25809D02*
Y38509D01*
Y25809D02*
X58979D01*
Y38509*
X10949Y29689D02*
Y31219D01*
X11709*
X11959Y30959*
Y30449*
X11709Y30199*
X10949*
X11459D02*
X11959Y29689D01*
X13489Y30959D02*
X13229Y31219D01*
X12719*
X12469Y30959*
Y30709*
X12719Y30449*
X13229*
X13489Y30199*
Y29949*
X13229Y29689*
X12719*
X12469Y29949*
X13989Y31219D02*
X15009D01*
X14499*
Y29689*
X42189Y08389D02*
X42029Y08219D01*
Y07889*
X42189Y07719*
X42859*
X43029Y07889*
Y08219*
X42859Y08389*
X42499Y02719D02*
X42329Y02559D01*
Y02219*
X42499Y02059*
X42669*
X42829Y02219*
Y02559*
X42999Y02719*
X43169*
X43329Y02559*
Y02219*
X43169Y02059*
X43049Y38129D02*
Y39129D01*
X43549*
X43719Y38959*
Y38629*
X43549Y38459*
X43049*
X44549Y39129D02*
X44219D01*
X44049Y38959*
Y38289*
X44219Y38129*
X44549*
X44719Y38289*
Y38959*
X44549Y39129*
X45049D02*
Y38129D01*
X45389Y38459*
X45719Y38129*
Y39129*
X46719D02*
X46049D01*
Y38129*
X46719*
X46049Y38629D02*
X46389D01*
X47049Y38129D02*
Y39129D01*
X47549*
X47719Y38959*
Y38629*
X47549Y38459*
X47049*
X47379D02*
X47719Y38129D01*
X01419Y31319D02*
Y29789D01*
Y30559*
X02439*
Y31319*
Y29789*
X02949Y31319D02*
Y29789D01*
X03449Y30299*
X03959Y29789*
Y31319*
X04469D02*
Y29789D01*
X05229*
X05489Y30049*
Y30299*
X05229Y30559*
X04469*
X05229*
X05489Y30809*
Y31059*
X05229Y31319*
X04469*
X54199Y24359D02*
X55219D01*
X54709Y24869D02*
Y23849D01*
X54579Y12899D02*
Y13919D01*
X03749Y01689D02*
X03549Y01889D01*
X03149*
X02949Y01689*
Y01489*
X03149Y01289*
X03549*
X03749Y01089*
Y00889*
X03549Y00689*
X03149*
X02949Y00889*
X04149Y01889D02*
X04949D01*
X04549*
Y00689*
X05349D02*
Y01489D01*
X05749Y01889*
X06149Y01489*
Y00689*
Y01289*
X05349*
X06549Y00689D02*
Y01889D01*
X07149*
X07339Y01689*
Y01289*
X07149Y01089*
X06549*
X06949D02*
X07339Y00689D01*
X07739Y01889D02*
X08539D01*
X08139*
Y00689*
X12759Y01579D02*
X12559Y01779D01*
X12159*
X11959Y01579*
Y01379*
X12159Y01179*
X12559*
X12759Y00979*
Y00779*
X12559Y00579*
X12159*
X11959Y00779*
X13159Y01779D02*
X13959D01*
X13559*
Y00579*
X14959Y01779D02*
X14559D01*
X14359Y01579*
Y00779*
X14559Y00579*
X14959*
X15159Y00779*
Y01579*
X14959Y01779*
X15559Y00579D02*
Y01779D01*
X16159*
X16359Y01579*
Y01179*
X16159Y00979*
X15559*
X21089Y01689D02*
X20889Y01889D01*
X20489*
X20289Y01689*
Y00889*
X20489Y00689*
X20889*
X21089Y00889*
X21489Y00689D02*
Y01489D01*
X21889Y01889*
X22289Y01489*
Y00689*
Y01289*
X21489*
X22689Y01889D02*
Y00689D01*
X23489*
X23889Y01889D02*
X24289D01*
X24089*
Y00689*
X23889*
X24289*
X24889Y01889D02*
Y00689D01*
X25489*
X25689Y00889*
Y01089*
X25489Y01289*
X24889*
X25489*
X25689Y01489*
Y01689*
X25489Y01889*
X24889*
X23399Y32179D02*
X23229Y32339D01*
X22899*
X22729Y32179*
Y31509*
X22899Y31339*
X23229*
X23399Y31509*
X23729Y31339D02*
Y32009D01*
X24069Y32339*
X24399Y32009*
Y31339*
Y31839*
X23729*
X24729Y32339D02*
Y31339D01*
X25399*
X25729Y32339D02*
X26069D01*
X25899*
Y31339*
X25729*
X26069*
X26569Y32339D02*
Y31339D01*
X27059*
X27229Y31509*
Y31679*
X27059Y31839*
X26569*
X27059*
X27229Y32009*
Y32179*
X27059Y32339*
X26569*
X43469Y31409D02*
X43299Y31579D01*
X42969*
X42799Y31409*
Y31249*
X42969Y31079*
X43299*
X43469Y30909*
Y30749*
X43299Y30579*
X42969*
X42799Y30749*
X43799Y30579D02*
X44129D01*
X43969*
Y31579*
X43799Y31409*
X46409D02*
X46249Y31579D01*
X45909*
X45749Y31409*
Y31249*
X45909Y31079*
X46249*
X46409Y30909*
Y30749*
X46249Y30579*
X45909*
X45749Y30749*
X47409Y30579D02*
X46749D01*
X47409Y31249*
Y31409*
X47239Y31579*
X46909*
X46749Y31409*
X08509Y11829D02*
X08679Y11999D01*
X09009*
X09179Y11829*
Y11659*
X09009Y11499*
X08839*
X09009*
X09179Y11329*
Y11159*
X09009Y10999*
X08679*
X08509Y11159*
X09509Y10999D02*
Y11159D01*
X09679*
Y10999*
X09509*
X10339Y11829D02*
X10509Y11999D01*
X10839*
X11009Y11829*
Y11659*
X10839Y11499*
X10669*
X10839*
X11009Y11329*
Y11159*
X10839Y10999*
X10509*
X10339Y11159*
X11339Y11999D02*
Y11329D01*
X11669Y10999*
X12009Y11329*
Y11999*
X49279Y06319D02*
Y07319D01*
X49609Y06989*
X49939Y07319*
Y06319*
X50279Y07319D02*
X50939D01*
X50609*
Y06319*
X51279D02*
Y07319D01*
X51779*
X51939Y07159*
Y06819*
X51779Y06659*
X51279*
X51609D02*
X51939Y06319D01*
X52939Y07159D02*
X52769Y07319D01*
X52439*
X52279Y07159*
Y06989*
X52439Y06819*
X52769*
X52939Y06659*
Y06489*
X52769Y06319*
X52439*
X52279Y06489*
X35799Y06889D02*
Y06219D01*
X36799*
Y06889*
X36299Y06219D02*
Y06559D01*
X35969Y07889D02*
X35799Y07719D01*
Y07389*
X35969Y07219*
X36139*
X36299Y07389*
Y07719*
X36469Y07889*
X36639*
X36799Y07719*
Y07389*
X36639Y07219*
X35969Y08889D02*
X35799Y08719D01*
Y08389*
X35969Y08219*
X36639*
X36799Y08389*
Y08719*
X36639Y08889*
X45089Y01419D02*
X44919Y01579D01*
X44589*
X44419Y01419*
Y00749*
X44589Y00579*
X44919*
X45089Y00749*
Y01079*
X44759*
X45419Y00579D02*
Y01579D01*
X46089Y00579*
Y01579*
X46419D02*
Y00579D01*
X46919*
X47089Y00749*
Y01419*
X46919Y01579*
X46419*
X37799Y05279D02*
X37629Y05439D01*
X37299*
X37129Y05279*
Y04609*
X37299Y04449*
X37629*
X37799Y04609*
Y04939*
X37469*
X38129Y04449D02*
Y05439D01*
X38799Y04449*
Y05439*
X39129D02*
Y04449D01*
X39629*
X39799Y04609*
Y05279*
X39629Y05439*
X39129*
X44369Y08029D02*
X43709D01*
X43369Y08359*
X43709Y08689*
X44369*
X43869*
Y08029*
X44369Y09029D02*
X43369D01*
Y09529*
X43539Y09689*
X43869*
X44039Y09529*
Y09029*
Y09359D02*
X44369Y09689D01*
X43369Y10029D02*
X44369D01*
Y10529*
X44209Y10689*
X43539*
X43369Y10529*
Y10029*
Y11029D02*
X44209D01*
X44369Y11189*
Y11529*
X44209Y11689*
X43369*
Y12029D02*
Y12359D01*
Y12189*
X44369*
Y12029*
Y12359*
Y12859D02*
X43369D01*
X44369Y13519*
X43369*
Y14359D02*
Y14019D01*
X43539Y13859*
X44209*
X44369Y14019*
Y14359*
X44209Y14519*
X43539*
X43369Y14359*
X17399Y23109D02*
X16399D01*
Y23609*
X16569Y23779*
X16899*
X17069Y23609*
Y23109*
X17399Y24109D02*
X16399D01*
Y24609*
X16569Y24779*
X16899*
X17069Y24609*
Y24109*
Y24449D02*
X17399Y24779D01*
X16399Y25609D02*
Y25279D01*
X16569Y25109*
X17229*
X17399Y25279*
Y25609*
X17229Y25779*
X16569*
X16399Y25609*
Y26109D02*
X17399Y26779D01*
X16399D02*
X17399Y26109D01*
X18209Y20149D02*
Y19479D01*
X18549Y19149*
X18879Y19479*
Y20149*
X19879Y19979D02*
X19709Y20149D01*
X19379*
X19209Y19979*
Y19319*
X19379Y19149*
X19709*
X19879Y19319*
X20879Y19979D02*
X20709Y20149D01*
X20379*
X20209Y19979*
Y19319*
X20379Y19149*
X20709*
X20879Y19319*
G54D46*
X51439Y11069D02*
D01*
X5144Y11058*
X51441Y11047*
X51443Y11036*
X51446Y11025*
X51449Y11015*
X51453Y11004*
X51458Y10994*
X51464Y10985*
X5147Y10975*
X51477Y10967*
X51484Y10958*
X51492Y10951*
X51501Y10943*
X5151Y10937*
X51519Y10931*
X51529Y10926*
X5154Y10921*
X5155Y10917*
X51561Y10914*
X51572Y10912*
X51583Y1091*
X51594Y1091*
X51605*
X51616Y1091*
X51627Y10912*
X51638Y10914*
X51649Y10917*
X51659Y10921*
X5167Y10926*
X51679Y10931*
X51689Y10937*
X51698Y10943*
X51707Y10951*
X51715Y10958*
X51722Y10967*
X51729Y10975*
X51735Y10985*
X51741Y10994*
X51746Y11004*
X5175Y11015*
X51753Y11025*
X51756Y11036*
X51758Y11047*
X51759Y11058*
X51769Y11069*
X50989Y08469D02*
Y11069D01*
Y08469D02*
X52219D01*
Y11069*
X51769D02*
X52219D01*
X50989D02*
X51439D01*
X11299Y37799D02*
Y37899D01*
X17799Y37799D02*
Y37899D01*
X11299Y31899D02*
Y31999D01*
X17799Y31899D02*
Y31999D01*
X11299Y37899D02*
X17799D01*
X11299Y31899D02*
X17799D01*
X02339Y37749D02*
Y37849D01*
X08839Y37749D02*
Y37849D01*
X02339Y31849D02*
Y31949D01*
X08839Y31849D02*
Y31949D01*
X02339Y37849D02*
X08839D01*
X02339Y31849D02*
X08839D01*
X08769Y09299D02*
X08869D01*
X08769Y02799D02*
X08869D01*
X02869Y09299D02*
X02969D01*
X02869Y02799D02*
X02969D01*
X08869D02*
Y09299D01*
X02869Y02799D02*
Y09299D01*
X16459D02*
X16559D01*
X16459Y02799D02*
X16559D01*
X10559Y09299D02*
X10659D01*
X10559Y02799D02*
X10659D01*
X16559D02*
Y09299D01*
X10559Y02799D02*
Y09299D01*
X35439Y15719D02*
Y24919D01*
X26239Y15719D02*
Y24919D01*
X35439*
X26239Y15719D02*
X35439D01*
X24189Y09189D02*
X24289D01*
X24189Y02689D02*
X24289D01*
X18289Y09189D02*
X18389D01*
X18289Y02689D02*
X18389D01*
X24289D02*
Y09189D01*
X18289Y02689D02*
Y09189D01*
X12569Y17779D02*
X15669D01*
X12569Y11079D02*
X15669D01*
X12569D02*
Y17779D01*
X15669Y11079D02*
Y17779D01*
X28639Y06569D02*
X28879Y06809D01*
X29719*
X31029D02*
X32119D01*
Y06379D02*
Y06809D01*
Y03329D02*
Y03769D01*
X31029Y03329D02*
X32119D01*
X28639D02*
X29719D01*
X28639D02*
Y03769D01*
Y06379D02*
Y06569D01*
G54D47*
X27539Y16719D02*
D01*
X27539Y1674*
X27537Y16761*
X27533Y16782*
X27528Y16802*
X27521Y16822*
X27514Y16842*
X27504Y1686*
X27494Y16878*
X27482Y16896*
X27469Y16912*
X27455Y16928*
X2744Y16942*
X27424Y16956*
X27407Y16968*
X27389Y16979*
X27371Y16989*
X27352Y16998*
X27332Y17005*
X27312Y17011*
X27292Y17015*
X27271Y17018*
X2725Y17019*
X27229*
X27208Y17018*
X27187Y17015*
X27167Y17011*
X27147Y17005*
X27127Y16998*
X27108Y16989*
X27089Y16979*
X27072Y16968*
X27055Y16956*
X27039Y16942*
X27024Y16928*
X2701Y16912*
X26997Y16896*
X26985Y16878*
X26975Y1686*
X26965Y16842*
X26958Y16822*
X26951Y16802*
X26946Y16782*
X26942Y16761*
X2694Y1674*
X26939Y16719*
X2694Y16699*
X26942Y16678*
X26946Y16657*
X26951Y16637*
X26958Y16617*
X26965Y16597*
X26975Y16579*
X26985Y16561*
X26997Y16543*
X2701Y16527*
X27024Y16511*
X27039Y16497*
X27055Y16483*
X27072Y16471*
X27089Y1646*
X27108Y1645*
X27127Y16441*
X27147Y16434*
X27167Y16428*
X27187Y16424*
X27208Y16421*
X27229Y1642*
X2725*
X27271Y16421*
X27292Y16424*
X27312Y16428*
X27332Y16434*
X27352Y16441*
X27371Y1645*
X27389Y1646*
X27407Y16471*
X27424Y16483*
X2744Y16497*
X27455Y16511*
X27469Y16527*
X27482Y16543*
X27494Y16561*
X27504Y16579*
X27514Y16597*
X27521Y16617*
X27528Y16637*
X27533Y16657*
X27537Y16678*
X27539Y16699*
X27539Y16719*
G54D48*
X26139Y14519D02*
D01*
X26139Y14528*
X26138Y14536*
X26137Y14544*
X26135Y14553*
X26132Y14561*
X26129Y14568*
X26125Y14576*
X26121Y14583*
X26117Y1459*
X26111Y14597*
X26106Y14603*
X261Y14609*
X26093Y14614*
X26087Y14619*
X26079Y14623*
X26072Y14627*
X26064Y14631*
X26057Y14634*
X26049Y14636*
X2604Y14638*
X26032Y14639*
X26024Y14639*
X26015*
X26007Y14639*
X25999Y14638*
X2599Y14636*
X25982Y14634*
X25975Y14631*
X25967Y14627*
X25959Y14623*
X25952Y14619*
X25946Y14614*
X25939Y14609*
X25933Y14603*
X25928Y14597*
X25922Y1459*
X25918Y14583*
X25914Y14576*
X2591Y14568*
X25907Y14561*
X25904Y14553*
X25902Y14544*
X25901Y14536*
X259Y14528*
X25899Y14519*
X259Y14511*
X25901Y14503*
X25902Y14495*
X25904Y14486*
X25907Y14478*
X2591Y14471*
X25914Y14463*
X25918Y14456*
X25922Y14449*
X25928Y14442*
X25933Y14436*
X25939Y1443*
X25946Y14425*
X25952Y1442*
X25959Y14416*
X25967Y14412*
X25975Y14408*
X25982Y14405*
X2599Y14403*
X25999Y14401*
X26007Y144*
X26015Y144*
X26024*
X26032Y144*
X2604Y14401*
X26049Y14403*
X26057Y14405*
X26064Y14408*
X26072Y14412*
X26079Y14416*
X26087Y1442*
X26093Y14425*
X261Y1443*
X26106Y14436*
X26111Y14442*
X26117Y14449*
X26121Y14456*
X26125Y14463*
X26129Y14471*
X26132Y14478*
X26135Y14486*
X26137Y14495*
X26138Y14503*
X26139Y14511*
X26139Y14519*
X17299Y11079D02*
D01*
X17299Y11088*
X17298Y11096*
X17297Y11104*
X17295Y11113*
X17292Y11121*
X17289Y11128*
X17285Y11136*
X17281Y11143*
X17277Y1115*
X17271Y11157*
X17266Y11163*
X1726Y11169*
X17253Y11174*
X17247Y11179*
X17239Y11183*
X17232Y11187*
X17224Y11191*
X17217Y11194*
X17209Y11196*
X172Y11198*
X17192Y11199*
X17184Y11199*
X17175*
X17167Y11199*
X17159Y11198*
X1715Y11196*
X17142Y11194*
X17135Y11191*
X17127Y11187*
X17119Y11183*
X17112Y11179*
X17106Y11174*
X17099Y11169*
X17093Y11163*
X17088Y11157*
X17082Y1115*
X17078Y11143*
X17074Y11136*
X1707Y11128*
X17067Y11121*
X17064Y11113*
X17062Y11104*
X17061Y11096*
X1706Y11088*
X17059Y11079*
X1706Y11071*
X17061Y11063*
X17062Y11055*
X17064Y11046*
X17067Y11038*
X1707Y11031*
X17074Y11023*
X17078Y11016*
X17082Y11009*
X17088Y11002*
X17093Y10996*
X17099Y1099*
X17106Y10985*
X17112Y1098*
X17119Y10976*
X17127Y10972*
X17135Y10968*
X17142Y10965*
X1715Y10963*
X17159Y10961*
X17167Y1096*
X17175Y1096*
X17184*
X17192Y1096*
X172Y10961*
X17209Y10963*
X17217Y10965*
X17224Y10968*
X17232Y10972*
X17239Y10976*
X17247Y1098*
X17253Y10985*
X1726Y1099*
X17266Y10996*
X17271Y11002*
X17277Y11009*
X17281Y11016*
X17285Y11023*
X17289Y11031*
X17292Y11038*
X17295Y11046*
X17297Y11055*
X17298Y11063*
X17299Y11071*
X17299Y11079*
M02*