%FSTAX23Y23*%
%MOMM*%
%SFA1B1*%

%IPPOS*%
%ADD17C,0.299999*%
%ADD18C,0.499999*%
%ADD19C,1.499997*%
%ADD20R,1.499997X1.499997*%
%ADD21C,1.299997*%
%ADD22C,1.999996*%
%ADD23C,0.699999*%
%LNfront_sensor-1*%
%LPD*%
G36*
X27999Y24169D02*
X27789Y24039D01*
X27339Y23659*
X26959Y23209*
X26649Y22709*
X26419Y22159*
X26279Y21589*
X26239Y20999*
X26279Y20409*
X26419Y19839*
X26649Y19289*
X26959Y18789*
X27339Y18339*
X27789Y17959*
X28289Y17649*
X28839Y17419*
X29409Y17279*
X29999Y17239*
X30589Y17279*
X31159Y17419*
X31709Y17649*
X32209Y17959*
X32659Y18339*
X33039Y18789*
X33349Y19289*
X33579Y19839*
X33719Y20409*
X33759Y20999*
X33719Y21589*
X33579Y22159*
X33349Y22709*
X33039Y23209*
X32659Y23659*
X32209Y24039*
X32119Y24099*
X32159Y24229*
X33879Y24089*
X35809Y23829*
X37719Y23469*
X39609Y23019*
X41479Y22459*
X43309Y21799*
X45099Y21049*
X46859Y20209*
X48559Y19269*
X50209Y18239*
X51809Y17129*
X53349Y15939*
X54819Y14669*
X56219Y13319*
X57539Y11889*
X58779Y10429*
X59059Y09969*
X59229Y09489*
X59289Y08939*
Y-02959*
X59169Y-02999*
X59039Y-02789*
X58659Y-02339*
X58209Y-01959*
X57709Y-01649*
X57159Y-01419*
X56589Y-01279*
X55999Y-01239*
X55409Y-01279*
X54839Y-01419*
X54289Y-01649*
X53789Y-01959*
X53339Y-02339*
X52959Y-02789*
X52649Y-03289*
X52419Y-03839*
X52279Y-04409*
X52239Y-04999*
X52279Y-05589*
X52419Y-06159*
X52569Y-06519*
X52469Y-06599*
X52379Y-06539*
X52369Y-06529*
X52349Y-06519*
X50739Y-05409*
X50719*
X50709Y-05389*
X49039Y-04379*
X49019Y-04369*
X49009Y-04359*
X47289Y-03429*
X47269Y-03419*
X47259Y-03409*
X45489Y-02579*
X45469Y-02569*
X45459Y-02559*
X43649Y-01819*
X43629Y-01809*
X43619Y-01799*
X41769Y-01149*
X41749*
X41739Y-01139*
X39859Y-00589*
X39839*
X39829Y-00579*
X37929Y-00129*
X37909Y-00119*
X37889*
X35969Y00239*
X35949*
X35929*
X33989Y00499*
X33979*
X33959*
X32009Y00649*
X31989*
X31969*
X30019Y00709*
X30009Y00699*
X29999Y00709*
X-29999*
X-30009Y00699*
X-30019Y00709*
X-31969Y00649*
X-31989*
X-32009*
X-33959Y00499*
X-33979*
X-33989*
X-35929Y00239*
X-35949*
X-35969*
X-37889Y-00119*
X-37909*
X-37929Y-00129*
X-39829Y-00579*
X-39839Y-00589*
X-39859*
X-41739Y-01139*
X-41749Y-01149*
X-41769*
X-43619Y-01799*
X-43629Y-01809*
X-43649Y-01819*
X-45459Y-02559*
X-45469Y-02569*
X-45489Y-02579*
X-47259Y-03409*
X-47269Y-03419*
X-47289Y-03429*
X-49009Y-04359*
X-49019Y-04369*
X-49039Y-04379*
X-50709Y-05389*
X-50719Y-05409*
X-50739*
X-52349Y-06519*
X-52369Y-06529*
X-52379Y-06539*
X-52469Y-06599*
X-52569Y-06519*
X-52419Y-06159*
X-52279Y-05589*
X-52239Y-04999*
X-52279Y-04409*
X-52419Y-03839*
X-52649Y-03289*
X-52959Y-02789*
X-53339Y-02339*
X-53789Y-01959*
X-54289Y-01649*
X-54839Y-01419*
X-55409Y-01279*
X-55999Y-01239*
X-56589Y-01279*
X-57159Y-01419*
X-57709Y-01649*
X-58209Y-01959*
X-58659Y-02339*
X-59039Y-02789*
X-59169Y-02999*
X-59289Y-02959*
Y08939*
X-59229Y09489*
X-59059Y09969*
X-58779Y10429*
X-57539Y11889*
X-56219Y13319*
X-54819Y14669*
X-53349Y15939*
X-51809Y17129*
X-50209Y18239*
X-48559Y19269*
X-46859Y20209*
X-45099Y21049*
X-43309Y21799*
X-41479Y22459*
X-39609Y23019*
X-37719Y23469*
X-35809Y23829*
X-33879Y24089*
X-32159Y24229*
X-32119Y24099*
X-32209Y24039*
X-32659Y23659*
X-33039Y23209*
X-33349Y22709*
X-33579Y22159*
X-33719Y21589*
X-33759Y20999*
X-33719Y20409*
X-33579Y19839*
X-33349Y19289*
X-33039Y18789*
X-32659Y18339*
X-32209Y17959*
X-31709Y17649*
X-31159Y17419*
X-30589Y17279*
X-29999Y17239*
X-29409Y17279*
X-28839Y17419*
X-28289Y17649*
X-27789Y17959*
X-27339Y18339*
X-26959Y18789*
X-26649Y19289*
X-26419Y19839*
X-26279Y20409*
X-26239Y20999*
X-26279Y21589*
X-26419Y22159*
X-26649Y22709*
X-26959Y23209*
X-27339Y23659*
X-27789Y24039*
X-27999Y24169*
X-27959Y24289*
X27959*
X27999Y24169*
G37*
%LNfront_sensor-2*%
%LPC*%
G36*
X14949Y17809D02*
X14739Y17769D01*
X14549Y17649*
X14429Y17459*
X14389Y17249*
X14429Y17039*
X14489Y16949*
Y05919*
X10919*
X10749Y05879*
X10599Y05789*
X10329Y05519*
X10209Y05579*
X10229Y05739*
X10199Y05979*
X10099Y06219*
X09949Y06409*
X09749Y06569*
X09519Y06659*
X09269Y06699*
X09029Y06659*
X08789Y06569*
X08599Y06409*
X08439Y06219*
X08349Y05979*
X08319Y05739*
X08349Y05489*
X08439Y05259*
X08599Y05059*
X08789Y04909*
X09029Y04809*
X09269Y04779*
X09429Y04799*
X09489Y04679*
X09209Y04399*
X08589*
X08479Y04539*
X08299Y04679*
X08099Y04769*
X07869Y04789*
X07649Y04769*
X07449Y04679*
X07429Y04669*
X06599Y05499*
X06649Y05629*
X06829Y05649*
X07029Y05729*
X07209Y05869*
X07349Y06049*
X07429Y06259*
X07459Y06479*
X07429Y06699*
X07399Y06769*
X08509Y07879*
X08579Y07989*
X08609Y08129*
Y10679*
X08729Y10729*
X08929Y10879*
X09079Y11079*
X09179Y11309*
X09209Y11549*
X09249Y11579*
X09329Y11609*
X11179Y09759*
Y07539*
X11149Y07519*
X11029Y07339*
X10989Y07119*
X11029Y06909*
X11149Y06729*
X11339Y06609*
X11549Y06559*
X11759Y06609*
X11949Y06729*
X12069Y06909*
X12109Y07119*
X12069Y07339*
X11949Y07519*
X11889Y07559*
Y09909*
X11859Y10049*
X11789Y10159*
X07719Y14229*
X07609Y14299*
X07469Y14329*
X07019*
X06999Y14369*
X06809Y14489*
X06599Y14539*
X06389Y14489*
X06199Y14369*
X06079Y14189*
X06039Y13979*
X06079Y13759*
X06199Y13579*
X06389Y13459*
X06599Y13409*
X06809Y13459*
X06999Y13579*
X07019Y13619*
X07319*
X08309Y12629*
X08269Y12549*
X08249Y12509*
X08009Y12479*
X07779Y12389*
X07579Y12229*
X07429Y12039*
X07329Y11809*
X07299Y11559*
X07329Y11309*
X07429Y11079*
X07579Y10879*
X07779Y10729*
X07899Y10679*
Y08279*
X06899Y07279*
X06829Y07309*
X06599Y07329*
X06379Y07309*
X06179Y07219*
X05999Y07079*
X05859Y06909*
Y06899*
X05729Y06929*
Y07629*
Y09269*
X05699Y09449*
X05599Y09599*
X04809Y10389*
Y10819*
X04929Y10859*
X04969Y10809*
X05189Y10639*
X05439Y10529*
X05569Y10519*
Y11559*
Y12599*
X05439Y12579*
X05189Y12469*
X04969Y12309*
X04929Y12259*
X04809Y12299*
Y13809*
X07069Y16079*
X07169Y16219*
X07209Y16399*
Y16869*
X07269Y16959*
X07309Y17169*
X07269Y17389*
X07149Y17569*
X06959Y17689*
X06749Y17739*
X06539Y17689*
X06349Y17569*
X06229Y17389*
X06189Y17169*
X06229Y16959*
X06289Y16869*
Y16589*
X04029Y14319*
X03929Y14179*
X03889Y13999*
Y12509*
X02219*
Y11259*
X00559Y09599*
X00469Y09449*
X00429Y09269*
Y08089*
X-02359*
X-03989Y09719*
X-04139Y09819*
X-04319Y09859*
X-06019*
Y10609*
X-05399*
Y12509*
X-07299*
Y10609*
X-06939*
Y09859*
X-08269*
Y14709*
X-07029Y15949*
X-06929Y16099*
X-06889Y16269*
Y16819*
X-06829Y16909*
X-06789Y17119*
X-06829Y17339*
X-06949Y17519*
X-07139Y17639*
X-07349Y17689*
X-07559Y17639*
X-07749Y17519*
X-07869Y17339*
X-07909Y17119*
X-07869Y16909*
X-07809Y16819*
Y16469*
X-09049Y15219*
X-09149Y15079*
X-09179Y14899*
Y09859*
X-15809*
X-17579Y11619*
Y12249*
X-14929Y14899*
X-14829Y15049*
X-14789Y15229*
Y16799*
X-14729Y16889*
X-14689Y17099*
X-14729Y17309*
X-14849Y17499*
X-15039Y17619*
X-15249Y17659*
X-15459Y17619*
X-15649Y17499*
X-15769Y17309*
X-15809Y17099*
X-15769Y16889*
X-15709Y16799*
Y15419*
X-18359Y12769*
X-18459Y12619*
X-18489Y12439*
Y11889*
X-21569*
Y15549*
X-21599Y15729*
X-21699Y15869*
X-22659Y16839*
X-22629Y16889*
X-22589Y17099*
X-22629Y17309*
X-22749Y17499*
X-22939Y17619*
X-23149Y17659*
X-23359Y17619*
X-23549Y17499*
X-23669Y17309*
X-23709Y17099*
X-23669Y16889*
X-23609Y16799*
Y16669*
X-23569Y16499*
X-23469Y16349*
X-22479Y15359*
Y11889*
X-27369*
X-30129Y14649*
X-30279Y14749*
X-30449Y14779*
X-30719*
X-30809Y14839*
X-31019Y14889*
X-31239Y14839*
X-31419Y14719*
X-31539Y14539*
X-31589Y14319*
X-31539Y14109*
X-31419Y13929*
X-31239Y13809*
X-31019Y13759*
X-30809Y13809*
X-30719Y13869*
X-30639*
X-28209Y11429*
X-32069Y07569*
X-37819*
Y10899*
X-37849Y11079*
X-37949Y11219*
X-38689Y11959*
X-38709Y12059*
X-38829Y12249*
X-39009Y12369*
X-39219Y12409*
X-39439Y12369*
X-39619Y12249*
X-39739Y12059*
X-39789Y11849*
X-39739Y11639*
X-39619Y11449*
X-39439Y11329*
X-39329Y11309*
X-38729Y10709*
Y07569*
X-43119*
X-43569Y08019*
X-43719Y08119*
X-43899Y08159*
X-46769*
X-46859Y08219*
X-47079Y08259*
X-47289Y08219*
X-47469Y08099*
X-47589Y07909*
X-47639Y07699*
X-47589Y07489*
X-47469Y07299*
X-47289Y07179*
X-47079Y07139*
X-46859Y07179*
X-46769Y07239*
X-44089*
X-43959Y07109*
X-49159Y01909*
X-54969*
X-55059Y01969*
X-55279Y02009*
X-55489Y01969*
X-55669Y01849*
X-55789Y01659*
X-55839Y01449*
X-55789Y01239*
X-55669Y01049*
X-55489Y00929*
X-55279Y00889*
X-55059Y00929*
X-54969Y00989*
X-48969*
X-48789Y01029*
X-48639Y01129*
X-43119Y06649*
X-31879*
X-31699Y06689*
X-31549Y06789*
X-27369Y10969*
X-18219*
X-16359Y09109*
X-17999Y07469*
X-18099Y07329*
X-18129Y07149*
Y04179*
X-18189Y04089*
X-18199Y04069*
X-18319Y04029*
X-22129Y07839*
X-22059Y07939*
X-22019Y08149*
X-22059Y08369*
X-22179Y08549*
X-22369Y08669*
X-22579Y08709*
X-22789Y08669*
X-22979Y08549*
X-23099Y08369*
X-23139Y08149*
X-23099Y07939*
X-22979Y07759*
X-22919Y07719*
X-22909Y07649*
X-22829Y07539*
X-17959Y02659*
X-17839Y02579*
X-17699Y02559*
X-12369*
Y02549*
X-12229Y02529*
X-03339*
X-03199Y02549*
X-03089Y02629*
X-02579Y03139*
X-02509Y03109*
X-02289Y03079*
X-02059Y03109*
X-01859Y03189*
X-01679Y03329*
X-01539Y03509*
X-01459Y03719*
X-01429Y03939*
X-01459Y04159*
X-01539Y04369*
X-01679Y04539*
X-01859Y04679*
X-02059Y04769*
X-02289Y04789*
X-02509Y04769*
X-02709Y04679*
X-02889Y04539*
X-03029Y04369*
X-03109Y04159*
X-03139Y03939*
X-03109Y03719*
X-03079Y03639*
X-03489Y03239*
X-04139*
X-04189Y03369*
X-04079Y03509*
X-03999Y03719*
X-03969Y03939*
X-03999Y04159*
X-04079Y04369*
X-04219Y04539*
X-04399Y04679*
X-04599Y04769*
X-04829Y04789*
X-05049Y04769*
X-05249Y04679*
X-05429Y04539*
X-05569Y04369*
X-05599Y04289*
X-05819*
X-08029Y06499*
X-08149Y06579*
X-08279Y06609*
X-09099*
X-09129Y06649*
X-09309Y06769*
X-09519Y06809*
X-09739Y06769*
X-09919Y06649*
X-10039Y06459*
X-10089Y06249*
X-10039Y06039*
X-09919Y05849*
X-09739Y05729*
X-09519Y05689*
X-09309Y05729*
X-09129Y05849*
X-09099Y05889*
X-08429*
X-06219Y03679*
X-06109Y03609*
X-05969Y03579*
X-05599*
X-05569Y03509*
X-05459Y03369*
X-05509Y03239*
X-12119*
X-12259Y03269*
X-17359*
X-17399Y03399*
X-17279Y03479*
X-17159Y03659*
X-17109Y03879*
X-17159Y04089*
X-17219Y04179*
Y06959*
X-15239Y08939*
X-04509*
X-02879Y07309*
X-02729Y07209*
X-02549Y07169*
X-01699*
X-01649Y07049*
X-01759Y06909*
X-01839Y06699*
X-01869Y06479*
X-01839Y06259*
X-01759Y06049*
X-01619Y05869*
X-01439Y05729*
X-01239Y05649*
X-01019Y05619*
X-00789Y05649*
X-00589Y05729*
X-00409Y05869*
X-00269Y06049*
X-00189Y06259*
X-00159Y06479*
X-00189Y06699*
X-00269Y06909*
X-00379Y07049*
X-00329Y07169*
X00839*
X00889Y07049*
X00779Y06909*
X00699Y06699*
X00669Y06479*
X00699Y06259*
X00779Y06049*
X00919Y05869*
X01099Y05729*
X01299Y05649*
X01519Y05619*
X01749Y05649*
X01949Y05729*
X01969Y05749*
X02799Y04909*
X02749Y04789*
X02569Y04769*
X02369Y04679*
X02189Y04539*
X02049Y04369*
X01969Y04159*
X01939Y03939*
X01969Y03719*
X02049Y03509*
X02189Y03329*
X02369Y03189*
X02569Y03109*
X02789Y03079*
X03019Y03109*
X03219Y03189*
X03399Y03329*
X03539Y03509*
X03599Y03659*
X03729Y03639*
X03749Y03569*
X03819Y03449*
X04729Y02539*
X04849Y02459*
X04989Y02439*
X11899*
X11919Y02399*
X12099Y02279*
X12319Y02229*
X12529Y02279*
X12719Y02399*
X12839Y02579*
X12879Y02789*
X12839Y03009*
X12719Y03189*
X12529Y03309*
X12319Y03349*
X12099Y03309*
X11919Y03189*
X11899Y03149*
X08449*
X08409Y03279*
X08479Y03329*
X08589Y03479*
X09399*
X09569Y03509*
X09719Y03609*
X11109Y04999*
X24509*
X24689Y05039*
X24819Y05129*
X48449*
X52299Y01279*
X52449Y01179*
X52629Y01139*
X54899*
X54989Y01079*
X55199Y01039*
X55409Y01079*
X55599Y01199*
X55719Y01389*
X55759Y01599*
X55719Y01809*
X55599Y01999*
X55409Y02119*
X55199Y02159*
X54989Y02119*
X54899Y02059*
X52819*
X48969Y05909*
X48819Y06009*
X48639Y06049*
X47609*
Y06999*
X47669Y07089*
X47709Y07299*
X47669Y07509*
X47549Y07699*
X47359Y07819*
X47149Y07859*
X46939Y07819*
X46749Y07699*
X46629Y07509*
X46589Y07299*
X46629Y07089*
X46689Y06999*
Y06049*
X39529*
Y11469*
X39639Y11639*
X39689Y11849*
X39639Y12059*
X39519Y12249*
X39339Y12369*
X39119Y12409*
X38909Y12369*
X38729Y12249*
X38609Y12059*
X38559Y11849*
X38609Y11639*
X38619Y11619*
Y06049*
X31329*
Y13199*
X31389Y13289*
X31439Y13499*
X31389Y13709*
X31269Y13899*
X31089Y14019*
X30879Y14059*
X30659Y14019*
X30479Y13899*
X30359Y13709*
X30309Y13499*
X30359Y13289*
X30419Y13199*
Y06049*
X24969*
Y10039*
X25149*
X25239Y09979*
X25449Y09939*
X25659Y09979*
X25849Y10099*
X25969Y10289*
X26009Y10499*
X25969Y10709*
X25849Y10899*
X25659Y11019*
X25449Y11059*
X25239Y11019*
X25149Y10959*
X24969*
Y15509*
X24929Y15689*
X24839Y15839*
X23439Y17229*
X23419Y17339*
X23299Y17519*
X23109Y17639*
X22899Y17689*
X22689Y17639*
X22499Y17519*
X22379Y17339*
X22339Y17119*
X22379Y16909*
X22499Y16729*
X22689Y16609*
X22789Y16589*
X24049Y15319*
Y10449*
Y05919*
X15409*
Y16949*
X15469Y17039*
X15509Y17249*
X15469Y17459*
X15349Y17649*
X15159Y17769*
X14949Y17809*
G37*
G36*
X-06249Y07419D02*
X-06339Y07399D01*
X-06579Y07309*
X-06769Y07149*
X-06929Y06959*
X-07019Y06719*
X-07029Y06629*
X-06249*
Y07419*
G37*
G36*
X-05949D02*
Y06629D01*
X-05159*
X-05169Y06719*
X-05269Y06959*
X-05419Y07149*
X-05619Y07309*
X-05849Y07399*
X-05949Y07419*
G37*
G36*
X-03559Y07329D02*
X-03779Y07309D01*
X-03979Y07219*
X-04159Y07079*
X-04299Y06909*
X-04379Y06699*
X-04409Y06479*
X-04379Y06259*
X-04299Y06049*
X-04159Y05869*
X-03979Y05729*
X-03779Y05649*
X-03559Y05619*
X-03329Y05649*
X-03129Y05729*
X-02949Y05869*
X-02809Y06049*
X-02729Y06259*
X-02699Y06479*
X-02729Y06699*
X-02809Y06909*
X-02949Y07079*
X-03129Y07219*
X-03329Y07309*
X-03559Y07329*
G37*
G36*
X00249Y04789D02*
X00029Y04769D01*
X-00169Y04679*
X-00349Y04539*
X-00489Y04369*
X-00569Y04159*
X-00599Y03939*
X-00569Y03719*
X-00489Y03509*
X-00349Y03329*
X-00169Y03189*
X00029Y03109*
X00249Y03079*
X00479Y03109*
X00679Y03189*
X00859Y03329*
X00999Y03509*
X01079Y03719*
X01109Y03939*
X01079Y04159*
X00999Y04369*
X00859Y04539*
X00679Y04679*
X00479Y04769*
X00249Y04789*
G37*
G36*
X-06249Y06329D02*
X-07029D01*
X-07019Y06229*
X-06929Y05999*
X-06769Y05799*
X-06579Y05649*
X-06339Y05549*
X-06249Y05539*
Y06329*
G37*
G36*
X-05159D02*
X-05949D01*
Y05539*
X-05849Y05549*
X-05619Y05649*
X-05419Y05799*
X-05269Y05999*
X-05169Y06229*
X-05159Y06329*
G37*
G36*
X-03959Y12599D02*
X-04079Y12579D01*
X-04339Y12469*
X-04559Y12309*
X-04729Y12089*
X-04829Y11829*
X-04849Y11709*
X-03959*
Y12599*
G37*
G36*
X-03659D02*
Y11709D01*
X-02769*
X-02789Y11829*
X-02889Y12089*
X-03059Y12309*
X-03279Y12469*
X-03539Y12579*
X-03659Y12599*
G37*
G36*
X05859D02*
Y11709D01*
X06749*
X06739Y11829*
X06629Y12089*
X06459Y12309*
X06239Y12469*
X05989Y12579*
X05859Y12599*
G37*
G36*
X-01269Y12519D02*
X-01519Y12479D01*
X-01749Y12389*
X-01949Y12229*
X-02099Y12039*
X-02199Y11809*
X-02229Y11559*
X-02199Y11309*
X-02099Y11079*
X-01949Y10879*
X-01749Y10729*
X-01519Y10629*
X-01269Y10599*
X-01019Y10629*
X-00789Y10729*
X-00589Y10879*
X-00439Y11079*
X-00339Y11309*
X-00309Y11559*
X-00339Y11809*
X-00439Y12039*
X-00589Y12229*
X-00789Y12389*
X-01019Y12479*
X-01269Y12519*
G37*
G36*
X-03959Y11409D02*
X-04849D01*
X-04829Y11279*
X-04729Y11029*
X-04559Y10809*
X-04339Y10639*
X-04079Y10529*
X-03959Y10519*
Y11409*
G37*
G36*
X-02769D02*
X-03659D01*
Y10519*
X-03539Y10529*
X-03279Y10639*
X-03059Y10809*
X-02889Y11029*
X-02789Y11279*
X-02769Y11409*
G37*
G36*
X06749D02*
X05859D01*
Y10519*
X05989Y10529*
X06239Y10639*
X06459Y10809*
X06629Y11029*
X06739Y11279*
X06749Y11409*
G37*
%LNfront_sensor-3*%
%LPD*%
G54D17*
X01899Y08639D02*
X04189D01*
X08259Y08129D02*
Y11559D01*
X04989Y02789D02*
X12319D01*
X01519Y06479D02*
X01739D01*
X-12259Y02909D02*
X-12229Y02879D01*
X-03339*
X06599Y06479D02*
X08259Y08129D01*
X-08279Y06249D02*
X-05969Y03939D01*
X-09519Y06249D02*
X-08279D01*
X11529Y07139D02*
X11549Y07119D01*
X11529Y07139D02*
Y09909D01*
X04069Y03709D02*
X04989Y02789D01*
X04069Y03709D02*
Y04149D01*
X01739Y06479D02*
X04069Y04149D01*
X-03339Y02879D02*
X-02289Y03939D01*
X-05969D02*
X-04829D01*
X06599Y13979D02*
X07469D01*
X11529Y09909*
X-22579Y07789D02*
X-17699Y02909D01*
X-22579Y07789D02*
Y08149D01*
X-17699Y02909D02*
X-12259D01*
G54D18*
X09399Y03939D02*
X10919Y05459D01*
X-04319Y09399D02*
X-02549Y07629D01*
X00889Y07759D02*
Y09269D01*
X-18029Y11429D02*
X-15999Y09399D01*
X-31879Y07109D02*
X-27559Y11429D01*
X-48969Y01449D02*
X-43309Y07109D01*
X-06479Y09399D02*
X-04319D01*
X00889Y09269D02*
X03169Y11559D01*
X48639Y05589D02*
X52629Y01599D01*
X07509Y03939D02*
X07869D01*
X09399*
X52629Y01599D02*
X55199D01*
X47149Y05589D02*
Y07299D01*
Y05589D02*
X48639D01*
X39079D02*
Y11799D01*
X39119Y11849*
X39079Y05589D02*
X47149D01*
X-55279Y01449D02*
X-48969D01*
X-43899Y07699D02*
X-43309Y07109D01*
X-47079Y07699D02*
X-43899D01*
X-38279Y07109D02*
Y10899D01*
X-39219Y11849D02*
X-38279Y10899D01*
X-43309Y07109D02*
X-38279D01*
X-31879*
X-30449Y14319D02*
X-27559Y11429D01*
X-31019Y14319D02*
X-30449D01*
X30879Y05589D02*
Y13499D01*
X24509Y05589D02*
X30879D01*
X39079*
X22899Y17119D02*
X24509Y15509D01*
X-22019Y11429D02*
Y15549D01*
X-27559Y11429D02*
X-22019D01*
X-18029*
Y12439*
X-15249Y15229D02*
Y17099D01*
X-18029Y12439D02*
X-15249Y15229D01*
X-23149Y16669D02*
X-22019Y15549D01*
X-23149Y16669D02*
Y17099D01*
X-08729Y09399D02*
Y14899D01*
X-07349Y16269*
Y17119*
X-15999Y09399D02*
X-08729D01*
X-06479*
X05279Y06169D02*
X07509Y03939D01*
X05279Y06169D02*
Y07629D01*
X-02549D02*
X05279D01*
Y09269*
X04349Y10199D02*
X05279Y09269D01*
X04349Y10199D02*
Y13999D01*
X06749Y16399*
Y17169*
X14949Y05459D02*
Y17249D01*
X10919Y05459D02*
X14949D01*
X24509*
X24559Y10499D02*
X25449D01*
X24509Y10449D02*
X24559Y10499D01*
X24509Y05589D02*
Y10449D01*
Y15509*
X-17669Y03879D02*
Y07149D01*
X-15519Y09299*
X-06479Y09399D02*
Y11559D01*
G54D19*
X-01269Y11559D03*
X-03809D03*
X08259D03*
X05719D03*
G54D20*
X-06349Y11559D03*
X03169D03*
G54D21*
X-01019Y06479D03*
X00249Y03939D03*
X01519Y06479D03*
X02789Y03939D03*
X04059Y06479D03*
X05329Y03939D03*
X06599Y06479D03*
X07869Y03939D03*
X-02289D03*
X-03559Y06479D03*
X-04829Y03939D03*
X-06099Y06479D03*
G54D22*
X55999Y-04999D03*
X29999Y20999D03*
X-55999Y-04999D03*
X-29999Y20999D03*
G54D23*
X04189Y08639D03*
X12319Y02789D03*
X-22579Y08149D03*
X01899Y08639D03*
X-45849Y-01269D03*
X-12569Y02159D03*
X-34159Y05209D03*
X-55369Y09019D03*
X-45969Y18289D03*
X-20569Y23239D03*
X-00129Y23109D03*
X18669Y23619D03*
X39239Y21079D03*
X52959Y13719D03*
X49149Y-00629D03*
X26539Y02289D03*
X-33699Y09519D03*
X-15109Y12189D03*
X13459Y10799D03*
X19939Y15239D03*
X-23239Y12569D03*
X31999Y08639D03*
X43329Y06719D03*
X23649Y06349D03*
X-09519Y06249D03*
X-10199Y10679D03*
X-13349Y08069D03*
X-01199Y08949D03*
X11549Y07119D03*
X09699Y09649D03*
X16199Y06719D03*
X55199Y01599D03*
X47149Y07299D03*
X39119Y11849D03*
X-55279Y01449D03*
X-47079Y07699D03*
X-39219Y11849D03*
X-31019Y14319D03*
X30879Y13499D03*
X22899Y17119D03*
X-15249Y17099D03*
X-23149D03*
X-07349Y17119D03*
X06599Y13979D03*
X06749Y17169D03*
X14949Y17249D03*
X25449Y10499D03*
X-17669Y03879D03*
X-20519Y13949D03*
X12699Y14319D03*
M02*