%FSTAX23Y23*%
%MOMM*%
%SFA1B1*%

%IPPOS*%
%ADD10R,1.099998X0.999998*%
%ADD11R,0.999998X1.099998*%
%ADD12R,1.099998X1.399997*%
%ADD13R,1.449997X0.389999*%
%ADD14R,0.389999X1.449997*%
%ADD15R,1.399997X1.099998*%
%ADD16R,1.659997X0.789998*%
%ADD17C,0.299999*%
%ADD18C,0.499999*%
%ADD19C,1.499997*%
%ADD20R,1.499997X1.499997*%
%ADD21C,1.299997*%
%ADD22C,1.999996*%
%ADD23C,0.699999*%
%LNfront_sensor-1*%
%LPD*%
G36*
X27999Y24169D02*
X27789Y24039D01*
X27339Y23659*
X26959Y23209*
X26649Y22709*
X26419Y22159*
X26279Y21589*
X26239Y20999*
X26279Y20409*
X26419Y19839*
X26649Y19289*
X26959Y18789*
X27339Y18339*
X27789Y17959*
X28289Y17649*
X28839Y17419*
X29409Y17279*
X29999Y17239*
X30589Y17279*
X31159Y17419*
X31709Y17649*
X32209Y17959*
X32659Y18339*
X33039Y18789*
X33349Y19289*
X33579Y19839*
X33719Y20409*
X33759Y20999*
X33719Y21589*
X33579Y22159*
X33349Y22709*
X33039Y23209*
X32659Y23659*
X32209Y24039*
X32119Y24099*
X32159Y24229*
X33879Y24089*
X35809Y23829*
X37719Y23469*
X39609Y23019*
X41479Y22459*
X43309Y21799*
X45099Y21049*
X46859Y20209*
X48559Y19269*
X50209Y18239*
X51809Y17129*
X53349Y15939*
X54819Y14669*
X56219Y13319*
X57539Y11889*
X58779Y10429*
X59059Y09969*
X59229Y09489*
X59289Y08939*
Y-02959*
X59169Y-02999*
X59039Y-02789*
X58659Y-02339*
X58209Y-01959*
X57709Y-01649*
X57159Y-01419*
X56589Y-01279*
X55999Y-01239*
X55409Y-01279*
X54839Y-01419*
X54289Y-01649*
X53789Y-01959*
X53339Y-02339*
X52959Y-02789*
X52649Y-03289*
X52419Y-03839*
X52279Y-04409*
X52239Y-04999*
X52279Y-05589*
X52419Y-06159*
X52569Y-06519*
X52469Y-06599*
X52379Y-06539*
X52369Y-06529*
X52349Y-06519*
X50739Y-05409*
X50719*
X50709Y-05389*
X49039Y-04379*
X49019Y-04369*
X49009Y-04359*
X47289Y-03429*
X47269Y-03419*
X47259Y-03409*
X45489Y-02579*
X45469Y-02569*
X45459Y-02559*
X43649Y-01819*
X43629Y-01809*
X43619Y-01799*
X41769Y-01149*
X41749*
X41739Y-01139*
X39859Y-00589*
X39839*
X39829Y-00579*
X37929Y-00129*
X37909Y-00119*
X37889*
X35969Y00239*
X35949*
X35929*
X33989Y00499*
X33979*
X33959*
X32009Y00649*
X31989*
X31969*
X30019Y00709*
X30009Y00699*
X29999Y00709*
X-29999*
X-30009Y00699*
X-30019Y00709*
X-31969Y00649*
X-31989*
X-32009*
X-33959Y00499*
X-33979*
X-33989*
X-35929Y00239*
X-35949*
X-35969*
X-37889Y-00119*
X-37909*
X-37929Y-00129*
X-39829Y-00579*
X-39839Y-00589*
X-39859*
X-41739Y-01139*
X-41749Y-01149*
X-41769*
X-43619Y-01799*
X-43629Y-01809*
X-43649Y-01819*
X-45459Y-02559*
X-45469Y-02569*
X-45489Y-02579*
X-47259Y-03409*
X-47269Y-03419*
X-47289Y-03429*
X-49009Y-04359*
X-49019Y-04369*
X-49039Y-04379*
X-50709Y-05389*
X-50719Y-05409*
X-50739*
X-52349Y-06519*
X-52369Y-06529*
X-52379Y-06539*
X-52469Y-06599*
X-52569Y-06519*
X-52419Y-06159*
X-52279Y-05589*
X-52239Y-04999*
X-52279Y-04409*
X-52419Y-03839*
X-52649Y-03289*
X-52959Y-02789*
X-53339Y-02339*
X-53789Y-01959*
X-54289Y-01649*
X-54839Y-01419*
X-55409Y-01279*
X-55999Y-01239*
X-56589Y-01279*
X-57159Y-01419*
X-57709Y-01649*
X-58209Y-01959*
X-58659Y-02339*
X-59039Y-02789*
X-59169Y-02999*
X-59289Y-02959*
Y08939*
X-59229Y09489*
X-59059Y09969*
X-58779Y10429*
X-57539Y11889*
X-56219Y13319*
X-54819Y14669*
X-53349Y15939*
X-51809Y17129*
X-50209Y18239*
X-48559Y19269*
X-46859Y20209*
X-45099Y21049*
X-43309Y21799*
X-41479Y22459*
X-39609Y23019*
X-37719Y23469*
X-35809Y23829*
X-33879Y24089*
X-32159Y24229*
X-32119Y24099*
X-32209Y24039*
X-32659Y23659*
X-33039Y23209*
X-33349Y22709*
X-33579Y22159*
X-33719Y21589*
X-33759Y20999*
X-33719Y20409*
X-33579Y19839*
X-33349Y19289*
X-33039Y18789*
X-32659Y18339*
X-32209Y17959*
X-31709Y17649*
X-31159Y17419*
X-30589Y17279*
X-29999Y17239*
X-29409Y17279*
X-28839Y17419*
X-28289Y17649*
X-27789Y17959*
X-27339Y18339*
X-26959Y18789*
X-26649Y19289*
X-26419Y19839*
X-26279Y20409*
X-26239Y20999*
X-26279Y21589*
X-26419Y22159*
X-26649Y22709*
X-26959Y23209*
X-27339Y23659*
X-27789Y24039*
X-27999Y24169*
X-27959Y24289*
X27959*
X27999Y24169*
G37*
%LNfront_sensor-2*%
%LPC*%
G36*
X42329Y08849D02*
X41619D01*
Y08199*
X42329*
Y08849*
G37*
G36*
X41329D02*
X40619D01*
Y08199*
X41329*
Y08849*
G37*
G36*
X-34499Y09169D02*
X-35199D01*
Y08519*
X-34499*
Y09169*
G37*
G36*
X-35499D02*
X-36199D01*
Y08519*
X-35499*
Y09169*
G37*
G36*
X50199Y08989D02*
X48139D01*
Y08409*
X48049Y08349*
X47449Y07759*
X47359Y07819*
X47149Y07859*
X46939Y07819*
X46749Y07699*
X46729Y07659*
X46399*
X46259Y07629*
X46149Y07549*
X45789Y07199*
X44139*
Y06009*
X46199*
Y06589*
X46549Y06939*
X46729*
X46749Y06899*
X46939Y06779*
X47149Y06739*
X47359Y06779*
X47549Y06899*
X47579Y06959*
X47639Y06969*
X47749Y07049*
X48449Y07739*
X48869*
X48999Y07769*
X49059Y07799*
X50199*
Y08989*
G37*
G36*
X-42449Y07219D02*
X-43949D01*
Y06959*
X-44139*
Y07199*
X-46199*
Y06009*
X-44139*
Y06239*
X-43949*
Y05829*
X-42449*
Y07219*
G37*
G36*
X-06249Y07419D02*
X-06339Y07399D01*
X-06579Y07309*
X-06769Y07149*
X-06929Y06959*
X-07019Y06719*
X-07029Y06629*
X-06249*
Y07419*
G37*
G36*
X41329Y07899D02*
X40619D01*
Y07249*
X41329*
Y07899*
G37*
G36*
X51999Y07279D02*
X50499D01*
Y06959*
X50199*
Y07199*
X48139*
Y06009*
X50199*
Y06239*
X50499*
Y05879*
X51999*
Y07279*
G37*
G36*
X-23379Y09559D02*
X-23729D01*
Y08679*
X-23379*
Y09559*
G37*
G36*
X-34599Y11729D02*
X-36099D01*
Y11689*
X-38159*
Y10509*
X-36099*
Y10379*
Y10329*
X-34599*
Y11729*
G37*
G36*
X33999Y10699D02*
X33299D01*
Y10049*
X33999*
Y10699*
G37*
G36*
X-02769Y11409D02*
X-03659D01*
Y10519*
X-03539Y10529*
X-03279Y10639*
X-03059Y10809*
X-02889Y11029*
X-02789Y11279*
X-02769Y11409*
G37*
G36*
X-03959D02*
X-04849D01*
X-04829Y11279*
X-04729Y11029*
X-04559Y10809*
X-04339Y10639*
X-04079Y10529*
X-03959Y10519*
Y11409*
G37*
G36*
X32999Y10699D02*
X32299D01*
Y10049*
X32999*
Y10699*
G37*
G36*
X33999Y09749D02*
X33299D01*
Y09099*
X33999*
Y09749*
G37*
G36*
X32999D02*
X32299D01*
Y09099*
X32999*
Y09749*
G37*
G36*
X-34499Y10119D02*
X-35199D01*
Y09469*
X-34499*
Y10119*
G37*
G36*
X-35499D02*
X-36199D01*
Y09469*
X-35499*
Y10119*
G37*
G36*
X-14599Y03619D02*
X-15299D01*
Y02779*
X-14599*
Y03619*
G37*
G36*
X57869Y05199D02*
X56469D01*
Y03699*
X57419*
X57959Y03159*
X57909Y03049*
X56169*
Y02519*
X55639Y01989*
X55599Y01999*
X55409Y02119*
X55199Y02159*
X54989Y02119*
X54799Y01999*
X54679Y01809*
X54639Y01599*
X54649Y01549*
X54349Y01259*
X53449*
X53389Y01249*
X52169*
Y00049*
X54229*
Y00539*
X54499*
X54639Y00569*
X54749Y00649*
X55149Y01049*
X55199Y01039*
X55409Y01079*
X55599Y01199*
X55619Y01239*
X55749*
X55889Y01269*
X55999Y01349*
X56509Y01859*
X58169*
Y01699*
X57719Y01249*
X56169*
Y00049*
X58229*
Y00749*
X58779Y01299*
X58849Y01409*
X58879Y01549*
Y03099*
X58849Y03239*
X58779Y03349*
X57869Y04249*
Y05199*
G37*
G36*
X56279Y04299D02*
X55629D01*
Y03599*
X56279*
Y04299*
G37*
G36*
X55329D02*
X54679D01*
Y03599*
X55329*
Y04299*
G37*
G36*
X-50299Y01229D02*
X-51799D01*
Y00959*
X-52169*
Y01199*
X-54229*
Y0*
X-52169*
Y00239*
X-51799*
Y-00169*
X-50299*
Y01229*
G37*
G36*
X-50199Y-01329D02*
X-50899D01*
Y-01979*
X-50199*
Y-01329*
G37*
G36*
X-51199D02*
X-51899D01*
Y-01979*
X-51199*
Y-01329*
G37*
G36*
X-50199Y-00379D02*
X-50899D01*
Y-01029*
X-50199*
Y-00379*
G37*
G36*
X-51199D02*
X-51899D01*
Y-01029*
X-51199*
Y-00379*
G37*
G36*
X-43349Y04669D02*
X-44049D01*
Y04019*
X-43349*
Y04669*
G37*
G36*
X-42349Y05619D02*
X-43049D01*
Y04969*
X-42349*
Y05619*
G37*
G36*
X-43349D02*
X-44049D01*
Y04969*
X-43349*
Y05619*
G37*
G36*
X52099Y05669D02*
X51399D01*
Y05019*
X52099*
Y05669*
G37*
G36*
X51099D02*
X50399D01*
Y05019*
X51099*
Y05669*
G37*
G36*
X56279Y05299D02*
X55629D01*
Y04599*
X56279*
Y05299*
G37*
G36*
X51099Y04719D02*
X50399D01*
Y04069*
X51099*
Y04719*
G37*
G36*
X-42349Y04669D02*
X-43049D01*
Y04019*
X-42349*
Y04669*
G37*
G36*
X55329Y05299D02*
X54679D01*
Y04599*
X55329*
Y05299*
G37*
G36*
X52099Y04719D02*
X51399D01*
Y04069*
X52099*
Y04719*
G37*
G36*
X26269Y13899D02*
X25579D01*
Y13249*
X26269*
Y13899*
G37*
G36*
X-26419Y14229D02*
X-27919D01*
Y13879*
X-28069*
Y14189*
X-30129*
Y13009*
X-28069*
Y13169*
X-27919*
Y12829*
X-26419*
Y14229*
G37*
G36*
X-12719Y14669D02*
X-13419D01*
Y14019*
X-12719*
Y14669*
G37*
G36*
Y13719D02*
X-13419D01*
Y13069*
X-12719*
Y13719*
G37*
G36*
X-11729D02*
X-12419D01*
Y13069*
X-11729*
Y13719*
G37*
G36*
X25279Y13899D02*
X24579D01*
Y13249*
X25279*
Y13899*
G37*
G36*
X-11729Y14669D02*
X-12419D01*
Y14019*
X-11729*
Y14669*
G37*
G36*
X-03279Y16169D02*
X-03969D01*
Y15519*
X-03279*
Y16169*
G37*
G36*
X-02279D02*
X-02969D01*
Y15519*
X-02279*
Y16169*
G37*
G36*
X26099Y19529D02*
X24039D01*
Y18849*
X22869Y17679*
X22689Y17639*
X22499Y17519*
X22479Y17489*
X22099*
Y17729*
X20239*
Y18169*
X20419Y18339*
X22099*
Y19529*
X20039*
Y18969*
X19629Y18569*
X19559Y18449*
X19529Y18309*
Y17769*
X18049*
Y17729*
X16099*
X16069*
X16049Y17779*
X16019Y17859*
X16499Y18339*
X18059*
Y19529*
X15999*
Y18849*
X14959Y17809*
X14949*
X14739Y17769*
X14549Y17649*
X14449Y17489*
X14059*
Y17729*
X12209*
Y18059*
X12489Y18339*
X14059*
Y19529*
X11999*
Y18859*
X11599Y18459*
X11519Y18339*
X11499Y18199*
Y17749*
X09999*
Y17729*
X08069*
X08039*
X08019Y17779*
X07989Y17859*
X08469Y18339*
X10029*
Y19529*
X07969*
Y18849*
X06839Y17719*
X06749Y17739*
X06539Y17689*
X06349Y17569*
X06299Y17489*
X06029*
Y17729*
X04079*
Y17879*
X04539Y18339*
X06029*
Y19529*
X03969*
Y18769*
X03469Y18279*
X03399Y18159*
X03369Y18019*
Y16419*
X03399Y16289*
X03469Y16169*
X03719Y15919*
X03839Y15849*
X03969Y15819*
X05389*
X06559Y14659*
X06509Y14519*
X06389Y14489*
X06199Y14369*
X06179Y14329*
X-03349*
X-03479Y14459*
X-03429Y14569*
X-03279*
Y15219*
X-03969*
Y15119*
X-04089Y15069*
X-05429Y16409*
X-05379Y16539*
X-03969*
X-03879Y16459*
Y16379*
X-02379*
Y17769*
X-03869*
Y17779*
X-03969Y17729*
X-05929*
X-05959*
X-05979Y17779*
X-06009Y17859*
X-05529Y18339*
X-03969*
Y19529*
X-06029*
Y18849*
X-07219Y17659*
X-07349Y17689*
X-07559Y17639*
X-07749Y17519*
X-07769Y17489*
X-07969*
Y17729*
X-09989*
Y17929*
X-09579Y18339*
X-07969*
Y19529*
X-10029*
Y18899*
X-10599Y18329*
X-10679Y18209*
X-10709Y18079*
Y16699*
X-10679Y16559*
X-10599Y16449*
X-10129Y15969*
X-10009Y15899*
X-09879Y15869*
X-05899*
X-03749Y13719*
X-03639Y13649*
X-03499Y13619*
X06179*
X06199Y13579*
X06389Y13459*
X06599Y13409*
X06809Y13459*
X06999Y13579*
X07119Y13759*
X07139Y13889*
X07279Y13929*
X08379Y12829*
X08499Y12749*
X08639Y12719*
X19659*
X22599Y09789*
X22549Y09669*
X21099*
Y09579*
X20999Y09559*
X20889Y09479*
X20399Y08989*
X04609*
X04589Y09029*
X04409Y09149*
X04189Y09199*
X03979Y09149*
X03789Y09029*
X03669Y08849*
X03629Y08639*
X03669Y08419*
X03789Y08239*
X03979Y08119*
X04189Y08079*
X04409Y08119*
X04589Y08239*
X04609Y08279*
X05199*
X05239Y08159*
X04359Y07279*
X04289Y07309*
X04059Y07329*
X03839Y07309*
X03639Y07219*
X03459Y07079*
X03319Y06909*
X03259Y06749*
X03129Y06779*
Y08829*
X03099Y08969*
X03029Y09079*
X02469Y09639*
X02349Y09719*
X02219Y09749*
X01039*
X-00399Y11189*
X-00339Y11309*
X-00309Y11559*
X-00339Y11809*
X-00439Y12039*
X-00589Y12229*
X-00789Y12389*
X-01019Y12479*
X-01269Y12519*
X-01519Y12479*
X-01749Y12389*
X-01949Y12229*
X-02099Y12039*
X-02199Y11809*
X-02229Y11559*
X-02199Y11309*
X-02099Y11079*
X-01949Y10879*
X-01749Y10729*
X-01519Y10629*
X-01269Y10599*
X-01019Y10629*
X-00899Y10679*
X00639Y09139*
X00759Y09059*
X00899Y09029*
X01359*
X01419Y08909*
X01389Y08849*
X01339Y08639*
X01349Y08589*
X-00029Y07209*
X-00099Y07089*
X-00129Y06959*
Y06899*
X-00259Y06869*
X-00269Y06909*
X-00409Y07079*
X-00589Y07219*
X-00789Y07309*
X-01019Y07329*
X-01239Y07309*
X-01309Y07279*
X-01819Y07779*
X-01929Y07859*
X-02069Y07889*
X-03989*
X-04129Y07859*
X-04239Y07779*
X-05109Y06919*
X-05259Y06929*
X-05269Y06959*
X-05419Y07149*
X-05619Y07309*
X-05849Y07399*
X-05949Y07419*
Y06479*
X-06099*
Y06329*
X-07029*
X-07019Y06229*
X-06929Y05999*
X-06859Y05909*
X-06919Y05779*
X-09029*
X-09089Y05909*
X-09009Y06039*
X-08959Y06249*
X-09009Y06459*
X-09129Y06649*
X-09309Y06769*
X-09519Y06809*
X-09739Y06769*
X-09919Y06649*
X-10039Y06459*
X-10069Y06329*
X-16979*
X-18259Y07609*
Y09769*
X-18279Y09909*
Y10629*
X-18919*
Y12319*
X-18019Y13219*
X-17949Y13339*
X-17919Y13479*
Y16539*
X-15999*
Y16779*
X-15699*
X-15649Y16699*
X-15459Y16579*
X-15249Y16539*
X-15039Y16579*
X-14849Y16699*
X-14729Y16889*
X-14689Y17099*
X-14699Y17169*
X-14189Y17679*
X-14059Y17629*
Y16539*
X-13159*
Y16269*
X-13319*
Y14869*
X-11819*
Y16269*
X-12439*
Y16539*
X-11999*
Y17729*
X-13959*
X-14009Y17859*
X-13529Y18339*
X-11999*
Y19529*
X-14059*
Y18819*
X-15219Y17659*
X-15249*
X-15459Y17619*
X-15649Y17499*
Y17489*
X-15999*
Y17729*
X-17919*
Y17949*
X-17529Y18339*
X-15999*
Y19529*
X-18059*
Y18819*
X-18529Y18349*
X-18599Y18239*
X-18629Y18099*
Y17829*
X-20079*
Y17729*
X-21969*
X-21989*
X-22099Y17849*
Y17889*
X-21659Y18339*
X-20039*
Y19529*
X-22099*
Y18909*
X-23429Y17569*
X-23549Y17499*
Y17489*
X-24039*
Y17729*
X-26019*
X-26099*
X-26139Y17839*
Y17849*
X-25659Y18339*
X-24039*
Y19529*
X-26099*
Y18909*
X-26749Y18249*
X-26829Y18139*
X-26859Y17999*
Y16349*
X-26829Y16209*
X-26749Y16099*
X-26349Y15699*
X-26239Y15619*
X-26099Y15589*
X-25109*
X-20339Y10819*
Y10629*
X-21629*
X-21649Y10729*
X-21729Y10849*
X-21969Y11089*
X-22079Y11159*
X-22219Y11189*
X-26329*
Y11669*
X-27169*
X-28019*
Y11189*
X-32019*
X-32649Y11819*
X-32759Y11889*
X-33759Y12889*
X-33709Y13009*
X-32069*
Y13629*
X-31729Y13969*
X-31449*
X-31419Y13929*
X-31239Y13809*
X-31019Y13759*
X-30809Y13809*
X-30629Y13929*
X-30509Y14109*
X-30459Y14319*
X-30469Y14369*
X-30049Y14789*
X-29349*
X-29289Y14809*
X-28069*
Y15989*
X-30129*
Y15509*
X-30199*
X-30339Y15479*
X-30449Y15399*
X-30979Y14879*
X-31019Y14889*
X-31239Y14839*
X-31419Y14719*
X-31449Y14679*
X-31879*
X-32009Y14649*
X-32129Y14579*
X-32509Y14189*
X-34019*
Y14399*
X-33619Y14809*
X-32069*
Y15989*
X-34129*
Y15299*
X-34629Y14799*
X-34699Y14689*
X-34729Y14549*
Y12999*
X-34699Y12859*
X-34629Y12749*
X-33189Y11309*
X-33079Y11229*
X-33069*
X-32419Y10579*
X-32309Y10509*
X-32169Y10479*
X-23729*
Y09859*
X-23229*
Y09709*
X-23079*
Y08679*
X-23009*
X-22969Y08549*
X-22979*
X-23099Y08369*
X-23139Y08149*
X-23099Y07939*
X-23039Y07849*
X-23109Y07719*
X-39099*
X-41139Y09769*
X-41149Y09779*
X-41759Y10389*
X-41709Y10509*
X-40099*
Y10939*
X-39779*
X-39639Y10969*
X-39519Y11049*
X-39269Y11299*
X-39219Y11289*
X-39009Y11329*
X-38829Y11449*
X-38709Y11639*
X-38659Y11849*
X-38669Y11899*
X-38279Y12289*
X-38159Y12309*
Y12299*
Y12309*
X-36099*
Y13489*
X-38159*
Y13029*
X-38399*
X-38539Y12999*
X-38649Y12929*
X-39179Y12399*
X-39219Y12409*
X-39439Y12369*
X-39619Y12249*
X-39739Y12059*
X-39789Y11849*
X-39779Y11799*
X-39919Y11659*
X-40099*
Y11689*
X-41979*
X-42029Y11809*
X-41539Y12309*
X-40099*
Y13489*
X-42159*
Y12689*
X-42829Y12029*
X-42899Y11909*
X-42929Y11769*
Y10699*
X-42899Y10559*
X-42829Y10449*
X-41659Y09279*
X-41649Y09269*
X-39499Y07109*
X-39379Y07039*
X-39239Y07009*
X-21839*
X-21709Y07039*
X-21589Y07109*
X-21029Y07679*
X-20949Y07789*
X-20919Y07929*
Y08239*
X-20799Y08289*
X-17849Y05339*
X-17899Y05229*
X-18239*
X-18319Y05239*
X-22939*
X-23079Y05209*
X-23189Y05139*
X-23429Y04899*
X-23509Y04779*
X-23529Y04679*
X-23619*
Y02829*
X-23729Y02769*
X-47319*
X-50169Y05619*
Y06009*
X-48139*
Y06489*
X-47919*
X-47789Y06519*
X-47669Y06599*
X-47119Y07149*
X-47079Y07139*
X-46859Y07179*
X-46679Y07299*
X-46649Y07339*
X-46579*
X-46439Y07369*
X-46319Y07449*
X-45969Y07799*
X-44139*
Y08989*
X-46199*
Y08509*
X-46239Y08499*
X-46349Y08429*
X-46679Y08099*
X-46859Y08219*
X-47079Y08259*
X-47289Y08219*
X-47469Y08099*
X-47589Y07909*
X-47639Y07699*
X-47629Y07649*
X-48069Y07209*
X-48649*
X-48709Y07199*
X-50169*
Y07329*
X-49689Y07799*
X-48139*
Y08989*
X-50199*
Y08309*
X-50779Y07729*
X-50849Y07609*
X-50879Y07469*
Y05469*
X-50849Y05339*
X-50779Y05219*
X-47939Y02389*
X-47989Y02269*
X-50019*
X-51349Y03599*
X-51459Y03679*
X-51599Y03709*
X-55669*
X-55809Y03679*
X-55929Y03599*
X-56529Y02989*
X-58229*
Y01799*
X-56169*
Y02349*
X-55529Y02989*
X-54229*
Y02419*
X-54759Y01899*
X-54879Y01849*
X-55059Y01969*
X-55279Y02009*
X-55489Y01969*
X-55669Y01849*
X-55789Y01659*
X-55839Y01449*
X-55829Y01399*
X-56019Y01209*
X-56949*
X-57009Y01199*
X-58229*
Y0*
X-56169*
Y00489*
X-55879*
X-55739Y00519*
X-55619Y00599*
X-55319Y00899*
X-55279Y00889*
X-55059Y00929*
X-54879Y01049*
X-54849Y01089*
X-54699*
X-54559Y01119*
X-54449Y01199*
X-53839Y01799*
X-52169*
Y02989*
X-51749*
X-50419Y01659*
X-50299Y01579*
X-50159Y01559*
X-22869*
X-22739Y01579*
X-22619Y01659*
X-21679Y02609*
X-21599Y02719*
X-21579Y02829*
X-21119*
Y02729*
X-20779*
Y03759*
X-20479*
Y02729*
X-20129*
Y03759*
X-19829*
Y02729*
X-19479*
Y03759*
X-19179*
Y02729*
X-18829*
Y02829*
X-18279*
Y03299*
X-17789Y03309*
X-17699Y03219*
Y02879*
X-16299*
Y02779*
X-15599*
Y03779*
X-15449*
Y03919*
X-14599*
Y04509*
X-05599*
X-05539Y04399*
X-05569Y04369*
X-05649Y04159*
X-05679Y03939*
X-05649Y03719*
X-05569Y03509*
X-05429Y03329*
X-05249Y03189*
X-05049Y03109*
X-04829Y03079*
X-04599Y03109*
X-04399Y03189*
X-04219Y03329*
X-04079Y03509*
X-03999Y03719*
X-03969Y03939*
Y03969*
X-03079Y04869*
X-02589*
X-02569Y04739*
X-02709Y04679*
X-02889Y04539*
X-03029Y04369*
X-03109Y04159*
X-03139Y03939*
X-03109Y03719*
X-03029Y03509*
X-02889Y03329*
X-02709Y03189*
X-02509Y03109*
X-02289Y03079*
X-02059Y03109*
X-01859Y03189*
X-01679Y03329*
X-01539Y03509*
X-01459Y03719*
X-01429Y03939*
X-01459Y04159*
X-01539Y04369*
X-01679Y04539*
X-01859Y04679*
X-02009Y04739*
X-01979Y04869*
X-00319*
X-00189Y04899*
X-00069Y04969*
X00479Y05519*
X00549Y05639*
X00579Y05779*
Y06199*
X00709Y06219*
X00779Y06049*
X00919Y05869*
X01099Y05729*
X01299Y05649*
X01519Y05619*
X01749Y05649*
X01949Y05729*
X02129Y05869*
X02269Y06049*
X02309Y06159*
X02439Y06149*
X02449Y06139*
X02519Y06019*
X04489Y04049*
X04479Y03939*
X04509Y03719*
X04589Y03509*
X04699Y03369*
X04649Y03239*
X03999*
X03589Y03639*
X03619Y03719*
X03649Y03939*
X03619Y04159*
X03539Y04369*
X03399Y04539*
X03219Y04679*
X03019Y04769*
X02789Y04789*
X02569Y04769*
X02369Y04679*
X02189Y04539*
X02049Y04369*
X01969Y04159*
X01939Y03939*
X01969Y03719*
X02049Y03509*
X02189Y03329*
X02369Y03189*
X02569Y03109*
X02789Y03079*
X03019Y03109*
X03089Y03139*
X03419Y02799*
X03369Y02689*
X02009*
X01049Y03639*
X01079Y03719*
X01109Y03939*
X01079Y04159*
X00999Y04369*
X00859Y04539*
X00679Y04679*
X00479Y04769*
X00249Y04789*
X00029Y04769*
X-00169Y04679*
X-00349Y04539*
X-00489Y04369*
X-00569Y04159*
X-00599Y03939*
X-00569Y03719*
X-00489Y03509*
X-00349Y03329*
X-00169Y03189*
X00029Y03109*
X00249Y03079*
X00479Y03109*
X00549Y03139*
X01609Y02079*
X01729Y01999*
X01859Y01969*
X09309*
X09449Y01999*
X09569Y02079*
X11259Y03769*
X12619*
X12669Y03649*
X12369Y03349*
X12319*
X12099Y03309*
X11919Y03189*
X11799Y03009*
X11759Y02789*
X11799Y02579*
X11919Y02399*
X12099Y02279*
X12319Y02229*
X12529Y02279*
X12719Y02399*
X12839Y02579*
X12879Y02789*
X12869Y02839*
X13239Y03219*
X24449*
X24579Y03239*
X24699Y03319*
X25749Y04369*
X27049*
Y04329*
X28899*
Y05019*
X45019*
X47249Y02799*
X47359Y02719*
X47499Y02689*
X51929*
X52169Y02449*
Y01859*
X54229*
Y03049*
X52579*
X52329Y03299*
X52209Y03379*
X52079Y03399*
X47649*
X45419Y05629*
X45309Y05699*
X45169Y05729*
X41639*
X41589Y05859*
X43699Y07969*
X44139*
Y07799*
X46199*
Y08989*
X44139*
Y08679*
X43549*
X43409Y08649*
X43299Y08579*
X42439Y07719*
X42329Y07769*
Y07899*
X41619*
Y07249*
X41799*
X41849Y07129*
X41079Y06359*
X28899*
Y06969*
X33769*
X33909Y06999*
X34029Y07069*
X35719Y08769*
X35799Y08889*
X35829Y09019*
Y11699*
X36429Y12309*
X38159*
Y13489*
X36099*
Y12979*
X35219Y12099*
X35139Y11979*
X35119Y11849*
Y09169*
X33629Y07679*
X29289*
X29239Y07809*
X29999Y08569*
X30079Y08689*
X30109Y08819*
Y11019*
X30079Y11159*
X29999Y11279*
X28389Y12889*
X28439Y13009*
X30129*
Y13189*
X30419*
X30479Y13099*
X30659Y12979*
X30879Y12939*
X31089Y12979*
X31269Y13099*
X31389Y13289*
X31439Y13499*
X31429Y13519*
X31949Y14039*
X32069Y13989*
Y13009*
X32789*
Y12299*
X32399*
Y10899*
X33899*
Y12299*
X33509*
Y13009*
X34129*
Y14189*
X32269*
X32229Y14309*
X32719Y14809*
X34129*
Y15989*
X32069*
Y15169*
X30949Y14049*
X30879Y14059*
X30659Y14019*
X30489Y13909*
X30129*
Y14189*
X28209*
Y14479*
X28529Y14809*
X30129*
Y15989*
X28069*
Y15349*
X27599Y14879*
X27519Y14759*
X27489Y14619*
Y12979*
X26899*
Y12269*
X27749*
Y12349*
X27869Y12399*
X29389Y10879*
Y08969*
X29119Y08699*
X28999Y08749*
Y09119*
X28899*
Y09669*
X28389*
Y09899*
X28349Y10069*
X28249Y10219*
X27719Y10749*
X27649Y10799*
Y11269*
X27749*
Y11979*
X25749*
Y11269*
X25849*
Y11029*
X25719Y10979*
X25659Y11019*
X25449Y11059*
X25239Y11019*
X25049Y10899*
X24929Y10709*
X24889Y10499*
X24929Y10289*
X25049Y10099*
X25239Y09979*
X25449Y09939*
X25659Y09979*
X25719Y10019*
X25849Y09969*
Y09879*
X27289*
X27369Y09779*
X27319Y09669*
X27049*
Y09119*
X26949*
Y08769*
X27979*
Y08469*
X26949*
Y08129*
X27049*
Y07029*
X26769*
X26629Y06999*
X26509Y06929*
X24069Y04479*
X23049*
Y04569*
X22019*
Y04879*
X23049*
Y05219*
X22949*
Y06329*
X22999Y06349*
X23119Y06419*
X24509Y07819*
X24589Y07929*
X24619Y08069*
Y10299*
X24589Y10439*
X24509Y10559*
X21109Y13959*
Y15729*
X21079Y15869*
X20999Y15979*
X20559Y16419*
X20609Y16539*
X22099*
Y16779*
X22469*
X22499Y16729*
X22689Y16609*
X22899Y16559*
X23109Y16609*
X23299Y16729*
X23419Y16909*
X23459Y17119*
X23439Y17239*
X23909Y17709*
X24039Y17659*
Y17629*
Y16539*
X24579*
X24679Y16449*
Y15049*
X26169*
Y16449*
X26099Y16539*
Y17729*
X24139*
X24129*
X24099*
X24079Y17779*
X24049Y17859*
X24539Y18339*
X26099*
Y19529*
G37*
G36*
X25279Y14849D02*
X24579D01*
Y14199*
X25279*
Y14849*
G37*
G36*
X26269D02*
X25579D01*
Y14199*
X26269*
Y14849*
G37*
G36*
X-02279Y15219D02*
X-02969D01*
Y14569*
X-02279*
Y15219*
G37*
G36*
X04119Y12509D02*
X02219D01*
Y10609*
X04119*
Y12509*
G37*
G36*
X-03959Y12599D02*
X-04079Y12579D01*
X-04339Y12469*
X-04559Y12309*
X-04729Y12089*
X-04829Y11829*
X-04849Y11709*
X-03959*
Y12599*
G37*
G36*
X-03659D02*
Y11709D01*
X-02769*
X-02789Y11829*
X-02889Y12089*
X-03059Y12309*
X-03279Y12469*
X-03539Y12579*
X-03659Y12599*
G37*
G36*
X-05399Y12509D02*
X-07299D01*
Y10609*
X-05399*
Y12509*
G37*
G36*
X05569Y11409D02*
X04679D01*
X04689Y11279*
X04799Y11029*
X04969Y10809*
X05189Y10639*
X05439Y10529*
X05569Y10519*
Y11409*
G37*
G36*
X06749D02*
X05859D01*
Y10519*
X05989Y10529*
X06239Y10639*
X06459Y10809*
X06629Y11029*
X06739Y11279*
X06749Y11409*
G37*
G36*
X08259Y12519D02*
X08009Y12479D01*
X07779Y12389*
X07579Y12229*
X07429Y12039*
X07329Y11809*
X07299Y11559*
X07329Y11309*
X07429Y11079*
X07579Y10879*
X07779Y10729*
X08009Y10629*
X08259Y10599*
X08499Y10629*
X08729Y10729*
X08929Y10879*
X09079Y11079*
X09179Y11309*
X09209Y11559*
X09179Y11809*
X09079Y12039*
X08929Y12229*
X08729Y12389*
X08499Y12479*
X08259Y12519*
G37*
G36*
X-26329Y12619D02*
X-27019D01*
Y11969*
X-26329*
Y12619*
G37*
G36*
X42159Y13489D02*
X40099D01*
Y12709*
X39659Y12259*
X39519Y12249*
X39339Y12369*
X39119Y12409*
X38909Y12369*
X38729Y12249*
X38699Y12209*
X38349*
X38209Y12179*
X38099Y12099*
X37689Y11689*
X36099*
Y10509*
X38159*
Y11159*
X38499Y11489*
X38699*
X38729Y11449*
X38909Y11329*
X39119Y11289*
X39339Y11329*
X39519Y11449*
X39549Y11489*
X39749*
X39889Y11519*
X39979Y11579*
X40059Y11549*
X40099Y11519*
Y10509*
X40619*
X40719Y10449*
Y09049*
X42219*
Y10449*
X42159Y10509*
Y11689*
X40279*
X40229Y11819*
X40709Y12309*
X42159*
Y13489*
G37*
G36*
X-27329Y12619D02*
X-28019D01*
Y11969*
X-27329*
Y12619*
G37*
G36*
X05569Y12599D02*
X05439Y12579D01*
X05189Y12469*
X04969Y12309*
X04799Y12089*
X04689Y11829*
X04679Y11709*
X05569*
Y12599*
G37*
G36*
X26599Y12979D02*
X25749D01*
Y12269*
X26599*
Y12979*
G37*
G36*
X05859Y12599D02*
Y11709D01*
X06749*
X06739Y11829*
X06629Y12089*
X06459Y12309*
X06239Y12469*
X05989Y12579*
X05859Y12599*
G37*
%LNfront_sensor-3*%
%LPD*%
G36*
X11269Y07599D02*
X11149Y07519D01*
X11029Y07339*
X10989Y07119*
X11029Y06909*
X11149Y06729*
X11339Y06609*
X11549Y06559*
X11759Y06609*
X11949Y06729*
X12069Y06909*
X12109Y07119*
X12149Y07169*
X19519*
X20899Y05799*
X20909Y05699*
X20889Y05639*
X20869Y05629*
X20299Y05059*
X10539*
X10399Y05029*
X10289Y04949*
X08659Y03319*
X08639Y03329*
X08589Y03469*
X08619Y03509*
X08699Y03719*
X08729Y03939*
X08699Y04159*
X08619Y04369*
X08479Y04539*
X08299Y04679*
X08099Y04769*
X07869Y04789*
X07649Y04769*
X07449Y04679*
X07269Y04539*
X07129Y04369*
X07049Y04159*
X07019Y03939*
X07049Y03719*
X07129Y03509*
X07239Y03369*
X07189Y03239*
X06019*
X05969Y03369*
X06079Y03509*
X06159Y03719*
X06189Y03939*
X06159Y04159*
X06079Y04369*
X05939Y04539*
X05759Y04679*
X05559Y04769*
X05329Y04789*
X05109Y04769*
X04909Y04679*
X04889Y04669*
X04049Y05499*
X04109Y05629*
X04289Y05649*
X04489Y05729*
X04669Y05869*
X04809Y06049*
X04889Y06259*
X04919Y06479*
X04889Y06699*
X04859Y06769*
X05819Y07729*
X11229*
X11269Y07599*
G37*
G36*
X07969Y17659D02*
Y17629D01*
Y16539*
X09999*
Y16349*
X11499*
X11619Y16329*
X14349Y13589*
X14389Y13559*
X14349Y13439*
X08779*
X05809Y16409*
X05819Y16469*
X05859Y16539*
X06029*
Y16779*
X06359*
X06539Y16659*
X06749Y16609*
X06959Y16659*
X07149Y16779*
X07269Y16959*
X07309Y17169*
Y17179*
X07839Y17709*
X07969Y17659*
G37*
G36*
X15999D02*
Y17629D01*
Y16539*
X18049*
Y16379*
X19549*
X19589Y16359*
X19609Y16299*
X19529Y16179*
X19519Y16169*
X18949*
Y15519*
X19649*
Y16049*
Y16149*
X19759Y16219*
X20389Y15579*
Y14059*
X20279Y14009*
X20189Y14099*
X20079Y14169*
X19939Y14199*
X14749*
X12529Y16419*
X12579Y16539*
X14059*
Y16779*
X14669*
X14739Y16729*
X14949Y16689*
X15159Y16729*
X15349Y16849*
X15469Y17039*
X15509Y17249*
X15489Y17329*
X15879Y17709*
X15999Y17659*
G37*
G36*
X-22099Y17619D02*
Y17609D01*
Y16539*
X-20079*
Y16429*
X-18629*
Y16219*
X-19169*
Y15419*
Y14619*
X-18629*
Y13619*
X-19529Y12719*
X-19609Y12609*
X-19639Y12469*
Y11299*
X-19759Y11249*
X-24709Y16199*
X-24829Y16279*
X-24969Y16309*
X-25949*
X-26059Y16409*
X-25999Y16539*
X-24039*
Y16779*
X-23599*
X-23549Y16699*
X-23359Y16579*
X-23149Y16539*
X-22939Y16579*
X-22749Y16699*
X-22629Y16889*
X-22589Y17099*
X-22629Y17309*
X-22649Y17339*
X-22259Y17739*
X-22219*
X-22099Y17619*
G37*
%LNfront_sensor-4*%
%LPC*%
G36*
X09269Y06699D02*
X09029Y06659D01*
X08789Y06569*
X08599Y06409*
X08439Y06219*
X08349Y05979*
X08319Y05739*
X08349Y05489*
X08439Y05259*
X08599Y05059*
X08789Y04909*
X09029Y04809*
X09269Y04779*
X09519Y04809*
X09749Y04909*
X09949Y05059*
X10099Y05259*
X10199Y05489*
X10229Y05739*
X10199Y05979*
X10099Y06219*
X09949Y06409*
X09749Y06569*
X09519Y06659*
X09269Y06699*
G37*
G36*
X06599Y07329D02*
X06379Y07309D01*
X06179Y07219*
X05999Y07079*
X05859Y06909*
X05779Y06699*
X05749Y06479*
X05779Y06259*
X05859Y06049*
X05999Y05869*
X06179Y05729*
X06379Y05649*
X06599Y05619*
X06829Y05649*
X07029Y05729*
X07209Y05869*
X07349Y06049*
X07429Y06259*
X07459Y06479*
X07429Y06699*
X07349Y06909*
X07209Y07079*
X07029Y07219*
X06829Y07309*
X06599Y07329*
G37*
G36*
X11599Y15199D02*
X10899D01*
Y14549*
X11599*
Y15199*
G37*
G36*
X10599D02*
X09899D01*
Y14549*
X10599*
Y15199*
G37*
G36*
Y16149D02*
X09899D01*
Y15499*
X10599*
Y16149*
G37*
G36*
X11599D02*
X10899D01*
Y15499*
X11599*
Y16149*
G37*
G36*
X18649Y16169D02*
X17949D01*
Y15519*
X18649*
Y16169*
G37*
G36*
Y15219D02*
X17949D01*
Y14569*
X18649*
Y15219*
G37*
G36*
X19649D02*
X18949D01*
Y14569*
X19649*
Y15219*
G37*
G36*
X-19479Y16219D02*
X-20169D01*
Y15569*
X-19479*
Y16219*
G37*
G36*
Y15269D02*
X-20169D01*
Y14619*
X-19479*
Y15269*
G37*
%LNfront_sensor-5*%
%LPD*%
G54D10*
X10749Y15349D03*
Y17049D03*
X18799Y15369D03*
Y17079D03*
X25419Y14049D03*
Y15749D03*
X-03119Y15369D03*
Y17079D03*
X51249Y04869D03*
Y06579D03*
X33149Y09899D03*
Y11599D03*
X-12569Y13869D03*
Y15569D03*
X41469Y08049D03*
Y09749D03*
X-19329Y15419D03*
Y17129D03*
X-35349Y09319D03*
Y11029D03*
X-27169Y11819D03*
Y13519D03*
X-43199Y04819D03*
Y06529D03*
X-51049Y-01179D03*
Y00529D03*
G54D11*
X55479Y04449D03*
X57169D03*
G54D12*
X-15449Y03779D03*
X-16949D03*
G54D13*
X22019Y09269D03*
Y08619D03*
Y07969D03*
Y07319D03*
Y06679D03*
Y06029D03*
Y05379D03*
Y04719D03*
X27979Y09269D03*
Y08619D03*
Y07969D03*
Y07319D03*
Y06679D03*
Y06029D03*
Y05379D03*
Y04719D03*
G54D14*
X-18679Y09709D03*
X-19329D03*
X-19979D03*
X-20629D03*
X-21279D03*
X-21929D03*
X-22579D03*
X-23229D03*
X-18679Y03759D03*
X-19329D03*
X-19979D03*
X-20629D03*
X-21279D03*
X-21929D03*
X-22579D03*
X-23229D03*
G54D15*
X26749Y12119D03*
Y10619D03*
G54D16*
X04999Y18929D03*
X08999D03*
Y17129D03*
X04999D03*
X13029Y18929D03*
X17029D03*
Y17129D03*
X13029D03*
X21069Y18929D03*
X25069D03*
Y17129D03*
X21069D03*
X-08999Y18929D03*
X-04999D03*
Y17129D03*
X-08999D03*
X53199Y02449D03*
X57199D03*
Y00649D03*
X53199D03*
X45169Y08399D03*
X49169D03*
Y06599D03*
X45169D03*
X29099Y15399D03*
X33099D03*
Y13599D03*
X29099D03*
X-17029Y18929D03*
X-13029D03*
Y17129D03*
X-17029D03*
X37129Y12899D03*
X41129D03*
Y11099D03*
X37129D03*
X-25069Y18929D03*
X-21069D03*
Y17129D03*
X-25069D03*
X-41129Y12899D03*
X-37129D03*
Y11099D03*
X-41129D03*
X-33099Y15399D03*
X-29099D03*
Y13599D03*
X-33099D03*
X-49169Y08399D03*
X-45169D03*
Y06599D03*
X-49169D03*
X-57199Y02399D03*
X-53199D03*
Y00599D03*
X-57199D03*
G54D17*
X21139Y09229D02*
X21979D01*
X22019Y09269*
X05109Y03939D02*
X05329D01*
X08729Y02879D02*
X10539Y04699D01*
X03849Y02879D02*
X08729D01*
X01859Y02329D02*
X09309D01*
X00899Y09389D02*
X02219D01*
X-01269Y11559D02*
X00899Y09389D01*
X-23229Y03889D02*
X-23179Y03939D01*
X-23229Y03759D02*
Y03889D01*
X08169Y11469D02*
X08259Y11559D01*
X05539Y16169D02*
X08639Y13079D01*
X22919Y08679D02*
X23149Y08909D01*
X22019Y08629D02*
Y08679D01*
Y07979D02*
X23239D01*
X23709Y08449*
X-19279Y09749D02*
Y12469D01*
X22019Y06679D02*
X22869D01*
X24259Y08069*
X45169Y05369D02*
X47499Y03049D01*
X27979Y05369D02*
X45169D01*
X-22629Y03709D02*
X-22579Y03759D01*
X-22629Y02859D02*
Y03709D01*
X-23079Y02409D02*
X-22629Y02859D01*
X27979Y06029D02*
X27999Y05999D01*
X-20629Y08629D02*
Y09709D01*
X08639Y13079D02*
X19809D01*
X23149Y09739*
Y08909D02*
Y09739D01*
X19939Y13839D02*
X23709Y10069D01*
Y08449D02*
Y10069D01*
X-41399Y09519D02*
X-39239Y07369D01*
X-21839*
X-21279Y07929*
Y09709*
X-22579Y08149D02*
Y09709D01*
X07999Y11559D02*
X08259D01*
X-21979Y09759D02*
Y10599D01*
Y09759D02*
X-21929Y09709D01*
X-19979D02*
Y10959D01*
X-18679Y09709D02*
X-18609Y09769D01*
X02789Y03939D02*
X03849Y02879D01*
X00249Y03939D02*
X01859Y02329D01*
X00219Y05779D02*
Y06959D01*
X01899Y08639*
X02779Y06279D02*
X05109Y03939D01*
X02779Y06279D02*
Y08829D01*
X02219Y09389D02*
X02779Y08829D01*
X09309Y02329D02*
X11109Y04129D01*
X12319Y02789D02*
X13099Y03569D01*
X-18319Y04889D02*
X-18299Y04869D01*
X-23179Y04649D02*
X-22939Y04889D01*
X-23179Y03939D02*
Y04649D01*
X-22939Y04889D02*
X-18319D01*
X-18609Y07459D02*
X-17129Y05979D01*
X-09799*
X-09519Y06249*
X-05659Y05419D02*
X-04899Y06179D01*
Y06619*
X-03989Y07529*
X-32169Y10839D02*
X-22219D01*
X-21979Y10599*
X13099Y03569D02*
X24449D01*
X25599Y04719*
X27979*
X11109Y04129D02*
X24219D01*
X26769Y06679*
X27979*
X-03989Y07529D02*
X-02069D01*
X-01019Y06479*
X-04829Y03939D02*
X-04509D01*
X-03219Y05219*
X-00319*
X00219Y05779*
X20539Y08639D02*
X21139Y09229D01*
X20429Y08079D02*
X21129Y07379D01*
X21969*
X22019Y07319*
X04059Y06479D02*
X05669Y08079D01*
X04189Y08639D02*
X20539D01*
X05669Y08079D02*
X20429D01*
X21169Y06029D02*
X22019D01*
X11549Y07119D02*
X11949Y07529D01*
X19669*
X21169Y06029*
X-05379Y04869D02*
X-03779Y06479D01*
X-03559*
X27999Y05999D02*
X41229D01*
X22019Y08679D02*
X22919D01*
X-18609Y07459D02*
Y09769D01*
X-41399Y09519D02*
Y09529D01*
X-32899Y11559D02*
X-32169Y10839D01*
X41229Y05999D02*
X43549Y08319D01*
X45089D02*
X45169Y08399D01*
X49169Y06599D02*
X51229D01*
X51249Y06579*
X27979Y07319D02*
X33769D01*
X35469Y09019*
Y11849*
X36529Y12899*
X37129*
X47499Y03049D02*
X52079D01*
X52669Y02449*
X53199*
X55199Y01599D02*
X55749D01*
X56599Y02449*
X57199*
X53199Y00649D02*
X53449Y00899D01*
X54499*
X55199Y01599*
X57169Y04449D02*
X58529Y03099D01*
Y01549D02*
Y03099D01*
X57619Y00649D02*
X58529Y01549D01*
X57199Y00649D02*
X57619D01*
X43549Y08319D02*
X45089D01*
X47149Y07299D02*
X47499D01*
X48869Y08099D02*
X49169Y08399D01*
X45169Y06599D02*
X45339Y06779D01*
X45879*
X46399Y07299*
X47149*
X47499D02*
X48299Y08099D01*
X48869*
X37599Y11099D02*
X38349Y11849D01*
X39119*
X39749D02*
X40799Y12899D01*
X41129*
Y11099D02*
X41149Y11079D01*
X33149Y11599D02*
Y13549D01*
X33099Y13599D02*
X33149Y13549D01*
X28619Y15399D02*
X29099D01*
X27849Y12929D02*
Y14619D01*
X28619Y15399*
X-53199Y00599D02*
X-51119D01*
X-51049Y00529*
X-55879Y00849D02*
X-55279Y01449D01*
X-56949Y00849D02*
X-55879D01*
X-57199Y00599D02*
X-56949Y00849D01*
X-47459Y02409D02*
X-23079D01*
X-49599Y08399D02*
X-49169D01*
X-50529Y05469D02*
X-47459Y02409D01*
X-50529Y05469D02*
Y07469D01*
X-49599Y08399*
X-45169Y06599D02*
X-43269D01*
X-43199Y06529*
X-53749Y02399D02*
X-53199D01*
X-55279Y01449D02*
X-54699D01*
X-53749Y02399*
X-50159Y01909D02*
X-22869D01*
X-51599Y03349D02*
X-50159Y01909D01*
X-57199Y02399D02*
X-56619D01*
X-55669Y03349*
X-51599*
X-47079Y07699D02*
X-46579D01*
X-46099Y08179*
X-45389*
X-45169Y08399*
X-47919Y06849D02*
X-47079Y07699D01*
X-48649Y06849D02*
X-47919D01*
X-48899Y06599D02*
X-48649Y06849D01*
X-49169Y06599D02*
X-48899D01*
X-42579Y10699D02*
X-41399Y09529D01*
X-42579Y10699D02*
Y11769D01*
X-41619Y12729*
X-37129Y11099D02*
X-35419D01*
X-35349Y11029*
X-32939Y11559D02*
X-32899D01*
X-33529Y15399D02*
X-33099D01*
X-34379Y12999D02*
X-32939Y11559D01*
X-34379Y12999D02*
Y14549D01*
X-33529Y15399*
X-39219Y11849D02*
X-38399Y12679D01*
X-37359*
X-37129Y12899*
X-41129Y11099D02*
X-40929Y11299D01*
X-39779*
X-39219Y11849*
X-29029Y13519D02*
X-27169D01*
X-29099Y13599D02*
X-29029Y13519D01*
X-31879Y14319D02*
X-31019D01*
X-32419Y13769D02*
X-31879Y14319D01*
X-31019D02*
X-30199Y15149D01*
X-29349*
X-29099Y15399*
X-24969Y15949D02*
X-19979Y10959D01*
X-26099Y15949D02*
X-24969D01*
X-26499Y16349D02*
X-26099Y15949D01*
X-26499Y16349D02*
Y17999D01*
X-25699Y18799*
X-21069Y17129D02*
X-21059D01*
X-21569Y18929D02*
X-21069D01*
X-13439D02*
X-13029D01*
X-15239Y17129D02*
X-13439Y18929D01*
X-05439D02*
X-04999D01*
X-07239Y17129D02*
X-05439Y18929D01*
X13029Y17129D02*
X14789D01*
X21069D02*
X22829D01*
X30959Y13549D02*
X32759Y15349D01*
X37129Y11099D02*
X37599D01*
X39119Y11849D02*
X39749D01*
X17089Y17079D02*
X18799D01*
X17029Y17129D02*
X17089Y17079D01*
X11849Y16589D02*
X14599Y13839D01*
X19939*
X11849Y16589D02*
Y18199D01*
X12579Y18929*
X13029*
X03969Y16169D02*
X05539D01*
X03719Y16419D02*
X03969Y16169D01*
X03719Y16419D02*
Y18019D01*
X04499Y18799*
X-10349Y16699D02*
X-09879Y16229D01*
X-10349Y16699D02*
Y18079D01*
X-09569Y18849*
X-19279Y12469D02*
X-18269Y13479D01*
Y18099*
X-17479Y18899*
X-17029Y17129D02*
X-15269D01*
X-25069D02*
X-23379D01*
X-04999D02*
X-03179D01*
X-03119Y17079*
X19889Y16589D02*
Y18309D01*
X20509Y18929*
X21069*
X20749Y13819D02*
Y15729D01*
X19889Y16589D02*
X20749Y15729D01*
X25069Y16109D02*
Y17129D01*
Y16109D02*
X25419Y15749D01*
X27979Y07979D02*
X28899D01*
X29749Y08819*
Y11019*
X27849Y12929D02*
X29749Y11019D01*
X-21929Y02859D02*
Y03759D01*
X-22869Y01909D02*
X-21929Y02859D01*
X10539Y04699D02*
X20449D01*
X21119Y05369*
X22019*
X-09879Y16229D02*
X-05749D01*
X-03499Y13979*
X06599*
X20749Y13819D02*
X24259Y10299D01*
Y08069D02*
Y10299D01*
X-20629Y08629D02*
X-17429Y05419D01*
X-05659*
X-18299Y04869D02*
X-05379D01*
X08999Y17129D02*
X09079Y17049D01*
X08999Y17129D02*
X10669D01*
X10749Y17049*
X-21069Y17129D02*
X-19329D01*
X-19379Y09649D02*
X-19279Y09749D01*
X-08999Y17129D02*
X-07349D01*
X-23369D02*
X-21569Y18929D01*
X04999Y17129D02*
X06749D01*
X06779Y17149D02*
X08559Y18929D01*
X14929Y17269D02*
X16589Y18929D01*
X22859Y17169D02*
X24629Y18929D01*
X29199Y13549D02*
X30879D01*
X41149Y09999D02*
Y11079D01*
X-13029Y17129D02*
X-12799Y16899D01*
Y15619D02*
Y16899D01*
X41149Y09999D02*
X41419Y09729D01*
G54D18*
X27929Y09369D02*
Y09899D01*
Y09369D02*
X27979Y09319D01*
X27399Y10429D02*
X27929Y09899D01*
X27079Y10429D02*
X27399D01*
X25449Y10499D02*
X26619D01*
X26749Y10619*
X-18629Y03759D02*
X-17669Y03769D01*
X-16949Y03779*
G54D19*
X-01269Y11559D03*
X-03809D03*
X08259D03*
X05719D03*
G54D20*
X-06349Y11559D03*
X03169D03*
G54D21*
X-01019Y06479D03*
X00249Y03939D03*
X01519Y06479D03*
X02789Y03939D03*
X04059Y06479D03*
X05329Y03939D03*
X06599Y06479D03*
X07869Y03939D03*
X-02289D03*
X-03559Y06479D03*
X-04829Y03939D03*
X-06099Y06479D03*
G54D22*
X55999Y-04999D03*
X29999Y20999D03*
X-55999Y-04999D03*
X-29999Y20999D03*
G54D23*
X04189Y08639D03*
X12319Y02789D03*
X-22579Y08149D03*
X01899Y08639D03*
X-45849Y-01269D03*
X-12569Y02159D03*
X-34159Y05209D03*
X-55369Y09019D03*
X-45969Y18289D03*
X-20569Y23239D03*
X-00129Y23109D03*
X18669Y23619D03*
X39239Y21079D03*
X52959Y13719D03*
X49149Y-00629D03*
X26539Y02289D03*
X-33699Y09519D03*
X-15109Y12189D03*
X13459Y10799D03*
X19939Y15239D03*
X-23239Y12569D03*
X31999Y08639D03*
X43329Y06719D03*
X23649Y06349D03*
X-09519Y06249D03*
X-10199Y10679D03*
X-13349Y08069D03*
X-01199Y08949D03*
X11549Y07119D03*
X09699Y09649D03*
X16199Y06719D03*
X55199Y01599D03*
X47149Y07299D03*
X39119Y11849D03*
X-55279Y01449D03*
X-47079Y07699D03*
X-39219Y11849D03*
X-31019Y14319D03*
X30879Y13499D03*
X22899Y17119D03*
X-15249Y17099D03*
X-23149D03*
X-07349Y17119D03*
X06599Y13979D03*
X06749Y17169D03*
X14949Y17249D03*
X25449Y10499D03*
X-17669Y03879D03*
X-20519Y13949D03*
X12699Y14319D03*
M02*