%FSTAX23Y23*%
%MOMM*%
%SFA1B1*%

%IPPOS*%
%ADD28R,1.299997X1.199998*%
%ADD29R,1.199998X1.299997*%
%ADD30R,1.299997X1.599997*%
%ADD31R,1.649997X0.589999*%
%ADD32R,0.589999X1.649997*%
%ADD33R,1.599997X1.299997*%
%ADD34R,1.859996X0.989998*%
%ADD35C,1.699997*%
%ADD36R,1.699997X1.699997*%
%ADD37C,0.200000*%
%ADD38C,1.499997*%
%ADD39C,2.199996*%
%ADD40C,0.899998*%
%LNfront_sensor-1*%
%LPD*%
G54D28*
X10749Y15349D03*
Y17049D03*
X18799Y15369D03*
Y17079D03*
X25419Y14049D03*
Y15749D03*
X-03119Y15369D03*
Y17079D03*
X51249Y04869D03*
Y06579D03*
X33149Y09899D03*
Y11599D03*
X-12569Y13869D03*
Y15569D03*
X41469Y08049D03*
Y09749D03*
X-19329Y15419D03*
Y17129D03*
X-35349Y09319D03*
Y11029D03*
X-27169Y11819D03*
Y13519D03*
X-43199Y04819D03*
Y06529D03*
X-51049Y-01179D03*
Y00529D03*
G54D29*
X55479Y04449D03*
X57169D03*
G54D30*
X-15449Y03779D03*
X-16949D03*
G54D31*
X22019Y09269D03*
Y08619D03*
Y07969D03*
Y07319D03*
Y06679D03*
Y06029D03*
Y05379D03*
Y04719D03*
X27979Y09269D03*
Y08619D03*
Y07969D03*
Y07319D03*
Y06679D03*
Y06029D03*
Y05379D03*
Y04719D03*
G54D32*
X-18679Y09709D03*
X-19329D03*
X-19979D03*
X-20629D03*
X-21279D03*
X-21929D03*
X-22579D03*
X-23229D03*
X-18679Y03759D03*
X-19329D03*
X-19979D03*
X-20629D03*
X-21279D03*
X-21929D03*
X-22579D03*
X-23229D03*
G54D33*
X26749Y12119D03*
Y10619D03*
G54D34*
X04999Y18929D03*
X08999D03*
Y17129D03*
X04999D03*
X13029Y18929D03*
X17029D03*
Y17129D03*
X13029D03*
X21069Y18929D03*
X25069D03*
Y17129D03*
X21069D03*
X-08999Y18929D03*
X-04999D03*
Y17129D03*
X-08999D03*
X53199Y02449D03*
X57199D03*
Y00649D03*
X53199D03*
X45169Y08399D03*
X49169D03*
Y06599D03*
X45169D03*
X29099Y15399D03*
X33099D03*
Y13599D03*
X29099D03*
X-17029Y18929D03*
X-13029D03*
Y17129D03*
X-17029D03*
X37129Y12899D03*
X41129D03*
Y11099D03*
X37129D03*
X-25069Y18929D03*
X-21069D03*
Y17129D03*
X-25069D03*
X-41129Y12899D03*
X-37129D03*
Y11099D03*
X-41129D03*
X-33099Y15399D03*
X-29099D03*
Y13599D03*
X-33099D03*
X-49169Y08399D03*
X-45169D03*
Y06599D03*
X-49169D03*
X-57199Y02399D03*
X-53199D03*
Y00599D03*
X-57199D03*
G54D35*
X-01269Y11559D03*
X-03809D03*
X08259D03*
X05719D03*
G54D36*
X-06349Y11559D03*
X03169D03*
G54D37*
X09269Y05739D03*
G54D38*
X-01019Y06479D03*
X00249Y03939D03*
X01519Y06479D03*
X02789Y03939D03*
X04059Y06479D03*
X05329Y03939D03*
X06599Y06479D03*
X07869Y03939D03*
X-02289D03*
X-03559Y06479D03*
X-04829Y03939D03*
X-06099Y06479D03*
G54D39*
X55999Y-04999D03*
X29999Y20999D03*
X-55999Y-04999D03*
X-29999Y20999D03*
G54D40*
X04189Y08639D03*
X12319Y02789D03*
X-22579Y08149D03*
X01899Y08639D03*
X-45849Y-01269D03*
X-12569Y02159D03*
X-34159Y05209D03*
X-55369Y09019D03*
X-45969Y18289D03*
X-20569Y23239D03*
X-00129Y23109D03*
X18669Y23619D03*
X39239Y21079D03*
X52959Y13719D03*
X49149Y-00629D03*
X26539Y02289D03*
X-33699Y09519D03*
X-15109Y12189D03*
X13459Y10799D03*
X19939Y15239D03*
X-23239Y12569D03*
X31999Y08639D03*
X43329Y06719D03*
X23649Y06349D03*
X-09519Y06249D03*
X-10199Y10679D03*
X-13349Y08069D03*
X-01199Y08949D03*
X11549Y07119D03*
X09699Y09649D03*
X16199Y06719D03*
X55199Y01599D03*
X47149Y07299D03*
X39119Y11849D03*
X-55279Y01449D03*
X-47079Y07699D03*
X-39219Y11849D03*
X-31019Y14319D03*
X30879Y13499D03*
X22899Y17119D03*
X-15249Y17099D03*
X-23149D03*
X-07349Y17119D03*
X06599Y13979D03*
X06749Y17169D03*
X14949Y17249D03*
X25449Y10499D03*
X-17669Y03879D03*
X-20519Y13949D03*
X12699Y14319D03*
M02*